<?xml version="1.0" encoding="UTF-8" standalone="no"?><svg xmlns="http://www.w3.org/2000/svg" xmlns:xlink="http://www.w3.org/1999/xlink" clip-rule="evenodd" stroke-miterlimit="10" viewBox="0 0 1024 768"><desc>SVG generated by Keynote</desc><defs></defs><g transform="matrix(1.00, 0.00, -0.00, -1.00, 0.0, 768.0)"><path d="M 0.0 768.0 L 1024.0 768.0 L 1024.0 0.0 L 0.0 0.0 Z M 0.0 768.0 " fill="#FEFFFF"></path><text xml:space="preserve" font-family="Akkurat-Mono,Akkurat-Mono" font-size="80.0" fill="#000000" transform="matrix(1.00, 0.00, -0.00, -1.00, 115.2, 272.3)">D</text><text xml:space="preserve" font-family="Akkurat-Mono,Akkurat-Mono" font-size="80.0" fill="#000000" transform="matrix(1.00, 0.00, -0.00, -1.00, 164.8, 272.3)">e</text><text xml:space="preserve" font-family="Akkurat-Mono,Akkurat-Mono" font-size="80.0" fill="#000000" transform="matrix(1.00, 0.00, -0.00, -1.00, 214.4, 272.3)">m</text><text xml:space="preserve" font-family="Akkurat-Mono,Akkurat-Mono" font-size="80.0" fill="#000000" transform="matrix(1.00, 0.00, -0.00, -1.00, 264.0, 272.3)">y</text><text xml:space="preserve" font-family="Akkurat-Mono,Akkurat-Mono" font-size="80.0" fill="#000000" transform="matrix(1.00, 0.00, -0.00, -1.00, 313.6, 272.3)">s</text><text xml:space="preserve" font-family="Akkurat-Mono,Akkurat-Mono" font-size="80.0" fill="#000000" transform="matrix(1.00, 0.00, -0.00, -1.00, 363.2, 272.3)">t</text><text xml:space="preserve" font-family="Akkurat-Mono,Akkurat-Mono" font-size="80.0" fill="#000000" transform="matrix(1.00, 0.00, -0.00, -1.00, 412.8, 272.3)">i</text><text xml:space="preserve" font-family="Akkurat-Mono,Akkurat-Mono" font-size="80.0" fill="#000000" transform="matrix(1.00, 0.00, -0.00, -1.00, 462.4, 272.3)">f</text><text xml:space="preserve" font-family="Akkurat-Mono,Akkurat-Mono" font-size="80.0" fill="#000000" transform="matrix(1.00, 0.00, -0.00, -1.00, 512.0, 272.3)">y</text><text xml:space="preserve" font-family="Akkurat-Mono,Akkurat-Mono" font-size="80.0" fill="#000000" transform="matrix(1.00, 0.00, -0.00, -1.00, 561.6, 272.3)">i</text><text xml:space="preserve" font-family="Akkurat-Mono,Akkurat-Mono" font-size="80.0" fill="#000000" transform="matrix(1.00, 0.00, -0.00, -1.00, 611.2, 272.3)">n</text><text xml:space="preserve" font-family="Akkurat-Mono,Akkurat-Mono" font-size="80.0" fill="#000000" transform="matrix(1.00, 0.00, -0.00, -1.00, 660.8, 272.3)">g</text><text xml:space="preserve" font-family="Akkurat-Mono,Akkurat-Mono" font-size="80.0" fill="#000000" transform="matrix(1.00, 0.00, -0.00, -1.00, 710.4, 272.3)"> </text><text xml:space="preserve" font-family="Akkurat-Mono,Akkurat-Mono" font-size="80.0" fill="#000000" transform="matrix(1.00, 0.00, -0.00, -1.00, 760.0, 272.3)">t</text><text xml:space="preserve" font-family="Akkurat-Mono,Akkurat-Mono" font-size="80.0" fill="#000000" transform="matrix(1.00, 0.00, -0.00, -1.00, 809.6, 272.3)">h</text><text xml:space="preserve" font-family="Akkurat-Mono,Akkurat-Mono" font-size="80.0" fill="#000000" transform="matrix(1.00, 0.00, -0.00, -1.00, 859.2, 272.3)">e</text><text xml:space="preserve" font-family="Akkurat-Mono,Akkurat-Mono" font-size="80.0" fill="#000000" transform="matrix(1.00, 0.00, -0.00, -1.00, 908.8, 272.3)"> </text><text xml:space="preserve" font-family="Akkurat-Mono,Akkurat-Mono" font-size="80.0" fill="#000000" transform="matrix(1.00, 0.00, -0.00, -1.00, 189.6, 166.3)">.</text><text xml:space="preserve" font-family="Akkurat-Mono,Akkurat-Mono" font-size="80.0" fill="#000000" transform="matrix(1.00, 0.00, -0.00, -1.00, 239.2, 166.3)">b</text><text xml:space="preserve" font-family="Akkurat-Mono,Akkurat-Mono" font-size="80.0" fill="#000000" transform="matrix(1.00, 0.00, -0.00, -1.00, 288.8, 166.3)">a</text><text xml:space="preserve" font-family="Akkurat-Mono,Akkurat-Mono" font-size="80.0" fill="#000000" transform="matrix(1.00, 0.00, -0.00, -1.00, 338.4, 166.3)">s</text><text xml:space="preserve" font-family="Akkurat-Mono,Akkurat-Mono" font-size="80.0" fill="#000000" transform="matrix(1.00, 0.00, -0.00, -1.00, 388.0, 166.3)">h</text><text xml:space="preserve" font-family="Akkurat-Mono,Akkurat-Mono" font-size="80.0" fill="#000000" transform="matrix(1.00, 0.00, -0.00, -1.00, 437.6, 166.3)">_</text><text xml:space="preserve" font-family="Akkurat-Mono,Akkurat-Mono" font-size="80.0" fill="#000000" transform="matrix(1.00, 0.00, -0.00, -1.00, 487.2, 166.3)">p</text><text xml:space="preserve" font-family="Akkurat-Mono,Akkurat-Mono" font-size="80.0" fill="#000000" transform="matrix(1.00, 0.00, -0.00, -1.00, 536.8, 166.3)">r</text><text xml:space="preserve" font-family="Akkurat-Mono,Akkurat-Mono" font-size="80.0" fill="#000000" transform="matrix(1.00, 0.00, -0.00, -1.00, 586.4, 166.3)">o</text><text xml:space="preserve" font-family="Akkurat-Mono,Akkurat-Mono" font-size="80.0" fill="#000000" transform="matrix(1.00, 0.00, -0.00, -1.00, 636.0, 166.3)">f</text><text xml:space="preserve" font-family="Akkurat-Mono,Akkurat-Mono" font-size="80.0" fill="#000000" transform="matrix(1.00, 0.00, -0.00, -1.00, 685.6, 166.3)">i</text><text xml:space="preserve" font-family="Akkurat-Mono,Akkurat-Mono" font-size="80.0" fill="#000000" transform="matrix(1.00, 0.00, -0.00, -1.00, 735.2, 166.3)">l</text><text xml:space="preserve" font-family="Akkurat-Mono,Akkurat-Mono" font-size="80.0" fill="#000000" transform="matrix(1.00, 0.00, -0.00, -1.00, 784.8, 166.3)">e</text><image xlink:href="../../4EBCB0B9-E0F0-4D44-A466-52E9B90D9713/assets/2F19D0FF8BA492AFB90416257243153E.png" width="160.00" height="160.00" transform="matrix(1.56, 0.00, -0.00, -1.56, 387.0, 654.1)"></image><text xml:space="preserve" font-family="AppleColorEmoji,Apple Color Emoji" font-size="250.0" fill="#000000" transform="matrix(1.00, 0.00, -0.00, -1.00, 387.0, 423.1)">✨</text></g></svg>