<?xml version="1.0" encoding="UTF-8" standalone="no"?><svg xmlns="http://www.w3.org/2000/svg" xmlns:xlink="http://www.w3.org/1999/xlink" clip-rule="evenodd" stroke-miterlimit="10" viewBox="0 0 1024 768"><desc>SVG generated by Keynote</desc><defs></defs><g transform="matrix(1.00, 0.00, -0.00, -1.00, 0.0, 768.0)"><path d="M 0.0 768.0 L 1024.0 768.0 L 1024.0 0.0 L 0.0 0.0 Z M 0.0 768.0 " fill="#FEFFFF"></path><text xml:space="preserve" font-family="Akkurat-Mono,Akkurat-Mono" font-size="80.0" fill="#000000" transform="matrix(1.00, 0.00, -0.00, -1.00, 412.8, 621.3)">W</text><text xml:space="preserve" font-family="Akkurat-Mono,Akkurat-Mono" font-size="80.0" fill="#000000" transform="matrix(1.00, 0.00, -0.00, -1.00, 462.4, 621.3)">h</text><text xml:space="preserve" font-family="Akkurat-Mono,Akkurat-Mono" font-size="80.0" fill="#000000" transform="matrix(1.00, 0.00, -0.00, -1.00, 512.0, 621.3)">a</text><text xml:space="preserve" font-family="Akkurat-Mono,Akkurat-Mono" font-size="80.0" fill="#000000" transform="matrix(1.00, 0.00, -0.00, -1.00, 561.6, 621.3)">t</text><text xml:space="preserve" font-family="Akkurat-Mono,Akkurat-Mono" font-size="27.0" fill="#000000" transform="matrix(1.00, 0.00, -0.00, -1.00, 79.0, 419.1)">•</text><text xml:space="preserve" font-family="Akkurat-Mono,Akkurat-Mono" font-size="36.0" fill="#000000" transform="matrix(1.00, 0.00, -0.00, -1.00, 114.0, 416.6)">h</text><text xml:space="preserve" font-family="Akkurat-Mono,Akkurat-Mono" font-size="36.0" fill="#000000" transform="matrix(1.00, 0.00, -0.00, -1.00, 136.3, 416.6)">i</text><text xml:space="preserve" font-family="Akkurat-Mono,Akkurat-Mono" font-size="36.0" fill="#000000" transform="matrix(1.00, 0.00, -0.00, -1.00, 158.6, 416.6)">d</text><text xml:space="preserve" font-family="Akkurat-Mono,Akkurat-Mono" font-size="36.0" fill="#000000" transform="matrix(1.00, 0.00, -0.00, -1.00, 181.0, 416.6)">d</text><text xml:space="preserve" font-family="Akkurat-Mono,Akkurat-Mono" font-size="36.0" fill="#000000" transform="matrix(1.00, 0.00, -0.00, -1.00, 203.3, 416.6)">e</text><text xml:space="preserve" font-family="Akkurat-Mono,Akkurat-Mono" font-size="36.0" fill="#000000" transform="matrix(1.00, 0.00, -0.00, -1.00, 225.6, 416.6)">n</text><text xml:space="preserve" font-family="Akkurat-Mono,Akkurat-Mono" font-size="36.0" fill="#000000" transform="matrix(1.00, 0.00, -0.00, -1.00, 247.9, 416.6)"> </text><text xml:space="preserve" font-family="Akkurat-Mono,Akkurat-Mono" font-size="36.0" fill="#000000" transform="matrix(1.00, 0.00, -0.00, -1.00, 270.2, 416.6)">f</text><text xml:space="preserve" font-family="Akkurat-Mono,Akkurat-Mono" font-size="36.0" fill="#000000" transform="matrix(1.00, 0.00, -0.00, -1.00, 292.6, 416.6)">i</text><text xml:space="preserve" font-family="Akkurat-Mono,Akkurat-Mono" font-size="36.0" fill="#000000" transform="matrix(1.00, 0.00, -0.00, -1.00, 314.9, 416.6)">l</text><text xml:space="preserve" font-family="Akkurat-Mono,Akkurat-Mono" font-size="36.0" fill="#000000" transform="matrix(1.00, 0.00, -0.00, -1.00, 337.2, 416.6)">e</text><text xml:space="preserve" font-family="Akkurat-Mono,Akkurat-Mono" font-size="36.0" fill="#000000" transform="matrix(1.00, 0.00, -0.00, -1.00, 359.5, 416.6)"> </text><text xml:space="preserve" font-family="Akkurat-Mono,Akkurat-Mono" font-size="36.0" fill="#000000" transform="matrix(1.00, 0.00, -0.00, -1.00, 381.8, 416.6)">i</text><text xml:space="preserve" font-family="Akkurat-Mono,Akkurat-Mono" font-size="36.0" fill="#000000" transform="matrix(1.00, 0.00, -0.00, -1.00, 404.2, 416.6)">n</text><text xml:space="preserve" font-family="Akkurat-Mono,Akkurat-Mono" font-size="36.0" fill="#000000" transform="matrix(1.00, 0.00, -0.00, -1.00, 426.5, 416.6)"> </text><text xml:space="preserve" font-family="Akkurat-Mono,Akkurat-Mono" font-size="36.0" fill="#000000" transform="matrix(1.00, 0.00, -0.00, -1.00, 448.8, 416.6)">y</text><text xml:space="preserve" font-family="Akkurat-Mono,Akkurat-Mono" font-size="36.0" fill="#000000" transform="matrix(1.00, 0.00, -0.00, -1.00, 471.1, 416.6)">o</text><text xml:space="preserve" font-family="Akkurat-Mono,Akkurat-Mono" font-size="36.0" fill="#000000" transform="matrix(1.00, 0.00, -0.00, -1.00, 493.4, 416.6)">u</text><text xml:space="preserve" font-family="Akkurat-Mono,Akkurat-Mono" font-size="36.0" fill="#000000" transform="matrix(1.00, 0.00, -0.00, -1.00, 515.8, 416.6)">r</text><text xml:space="preserve" font-family="Akkurat-Mono,Akkurat-Mono" font-size="36.0" fill="#000000" transform="matrix(1.00, 0.00, -0.00, -1.00, 538.1, 416.6)"> </text><text xml:space="preserve" font-family="Akkurat-Mono,Akkurat-Mono" font-size="36.0" fill="#000000" transform="matrix(1.00, 0.00, -0.00, -1.00, 560.4, 416.6)">h</text><text xml:space="preserve" font-family="Akkurat-Mono,Akkurat-Mono" font-size="36.0" fill="#000000" transform="matrix(1.00, 0.00, -0.00, -1.00, 582.7, 416.6)">o</text><text xml:space="preserve" font-family="Akkurat-Mono,Akkurat-Mono" font-size="36.0" fill="#000000" transform="matrix(1.00, 0.00, -0.00, -1.00, 605.0, 416.6)">m</text><text xml:space="preserve" font-family="Akkurat-Mono,Akkurat-Mono" font-size="36.0" fill="#000000" transform="matrix(1.00, 0.00, -0.00, -1.00, 627.4, 416.6)">e</text><text xml:space="preserve" font-family="Akkurat-Mono,Akkurat-Mono" font-size="36.0" fill="#000000" transform="matrix(1.00, 0.00, -0.00, -1.00, 649.7, 416.6)"> </text><text xml:space="preserve" font-family="Akkurat-Mono,Akkurat-Mono" font-size="36.0" fill="#000000" transform="matrix(1.00, 0.00, -0.00, -1.00, 672.0, 416.6)">d</text><text xml:space="preserve" font-family="Akkurat-Mono,Akkurat-Mono" font-size="36.0" fill="#000000" transform="matrix(1.00, 0.00, -0.00, -1.00, 694.3, 416.6)">i</text><text xml:space="preserve" font-family="Akkurat-Mono,Akkurat-Mono" font-size="36.0" fill="#000000" transform="matrix(1.00, 0.00, -0.00, -1.00, 716.6, 416.6)">r</text><text xml:space="preserve" font-family="Akkurat-Mono,Akkurat-Mono" font-size="36.0" fill="#000000" transform="matrix(1.00, 0.00, -0.00, -1.00, 739.0, 416.6)">e</text><text xml:space="preserve" font-family="Akkurat-Mono,Akkurat-Mono" font-size="36.0" fill="#000000" transform="matrix(1.00, 0.00, -0.00, -1.00, 761.3, 416.6)">c</text><text xml:space="preserve" font-family="Akkurat-Mono,Akkurat-Mono" font-size="36.0" fill="#000000" transform="matrix(1.00, 0.00, -0.00, -1.00, 783.6, 416.6)">t</text><text xml:space="preserve" font-family="Akkurat-Mono,Akkurat-Mono" font-size="36.0" fill="#000000" transform="matrix(1.00, 0.00, -0.00, -1.00, 805.9, 416.6)">o</text><text xml:space="preserve" font-family="Akkurat-Mono,Akkurat-Mono" font-size="36.0" fill="#000000" transform="matrix(1.00, 0.00, -0.00, -1.00, 828.2, 416.6)">r</text><text xml:space="preserve" font-family="Akkurat-Mono,Akkurat-Mono" font-size="36.0" fill="#000000" transform="matrix(1.00, 0.00, -0.00, -1.00, 850.6, 416.6)">y</text><text xml:space="preserve" font-family="Akkurat-Mono,Akkurat-Mono" font-size="36.0" fill="#000000" transform="matrix(1.00, 0.00, -0.00, -1.00, 872.9, 416.6)"> </text><text xml:space="preserve" font-family="Akkurat-Mono,Akkurat-Mono" font-size="27.0" fill="#000000" transform="matrix(1.00, 0.00, -0.00, -1.00, 79.0, 330.1)">•</text><text xml:space="preserve" font-family="Akkurat-Mono,Akkurat-Mono" font-size="36.0" fill="#000000" transform="matrix(1.00, 0.00, -0.00, -1.00, 114.0, 327.6)">s</text><text xml:space="preserve" font-family="Akkurat-Mono,Akkurat-Mono" font-size="36.0" fill="#000000" transform="matrix(1.00, 0.00, -0.00, -1.00, 136.3, 327.6)">t</text><text xml:space="preserve" font-family="Akkurat-Mono,Akkurat-Mono" font-size="36.0" fill="#000000" transform="matrix(1.00, 0.00, -0.00, -1.00, 158.6, 327.6)">a</text><text xml:space="preserve" font-family="Akkurat-Mono,Akkurat-Mono" font-size="36.0" fill="#000000" transform="matrix(1.00, 0.00, -0.00, -1.00, 181.0, 327.6)">r</text><text xml:space="preserve" font-family="Akkurat-Mono,Akkurat-Mono" font-size="36.0" fill="#000000" transform="matrix(1.00, 0.00, -0.00, -1.00, 203.3, 327.6)">t</text><text xml:space="preserve" font-family="Akkurat-Mono,Akkurat-Mono" font-size="36.0" fill="#000000" transform="matrix(1.00, 0.00, -0.00, -1.00, 225.6, 327.6)">u</text><text xml:space="preserve" font-family="Akkurat-Mono,Akkurat-Mono" font-size="36.0" fill="#000000" transform="matrix(1.00, 0.00, -0.00, -1.00, 247.9, 327.6)">p</text><text xml:space="preserve" font-family="Akkurat-Mono,Akkurat-Mono" font-size="36.0" fill="#000000" transform="matrix(1.00, 0.00, -0.00, -1.00, 270.2, 327.6)"> </text><text xml:space="preserve" font-family="Akkurat-Mono,Akkurat-Mono" font-size="36.0" fill="#000000" transform="matrix(1.00, 0.00, -0.00, -1.00, 292.6, 327.6)">c</text><text xml:space="preserve" font-family="Akkurat-Mono,Akkurat-Mono" font-size="36.0" fill="#000000" transform="matrix(1.00, 0.00, -0.00, -1.00, 314.9, 327.6)">o</text><text xml:space="preserve" font-family="Akkurat-Mono,Akkurat-Mono" font-size="36.0" fill="#000000" transform="matrix(1.00, 0.00, -0.00, -1.00, 337.2, 327.6)">n</text><text xml:space="preserve" font-family="Akkurat-Mono,Akkurat-Mono" font-size="36.0" fill="#000000" transform="matrix(1.00, 0.00, -0.00, -1.00, 359.5, 327.6)">f</text><text xml:space="preserve" font-family="Akkurat-Mono,Akkurat-Mono" font-size="36.0" fill="#000000" transform="matrix(1.00, 0.00, -0.00, -1.00, 381.8, 327.6)">i</text><text xml:space="preserve" font-family="Akkurat-Mono,Akkurat-Mono" font-size="36.0" fill="#000000" transform="matrix(1.00, 0.00, -0.00, -1.00, 404.2, 327.6)">g</text><text xml:space="preserve" font-family="Akkurat-Mono,Akkurat-Mono" font-size="36.0" fill="#000000" transform="matrix(1.00, 0.00, -0.00, -1.00, 426.5, 327.6)">u</text><text xml:space="preserve" font-family="Akkurat-Mono,Akkurat-Mono" font-size="36.0" fill="#000000" transform="matrix(1.00, 0.00, -0.00, -1.00, 448.8, 327.6)">r</text><text xml:space="preserve" font-family="Akkurat-Mono,Akkurat-Mono" font-size="36.0" fill="#000000" transform="matrix(1.00, 0.00, -0.00, -1.00, 471.1, 327.6)">a</text><text xml:space="preserve" font-family="Akkurat-Mono,Akkurat-Mono" font-size="36.0" fill="#000000" transform="matrix(1.00, 0.00, -0.00, -1.00, 493.4, 327.6)">t</text><text xml:space="preserve" font-family="Akkurat-Mono,Akkurat-Mono" font-size="36.0" fill="#000000" transform="matrix(1.00, 0.00, -0.00, -1.00, 515.8, 327.6)">i</text><text xml:space="preserve" font-family="Akkurat-Mono,Akkurat-Mono" font-size="36.0" fill="#000000" transform="matrix(1.00, 0.00, -0.00, -1.00, 538.1, 327.6)">o</text><text xml:space="preserve" font-family="Akkurat-Mono,Akkurat-Mono" font-size="36.0" fill="#000000" transform="matrix(1.00, 0.00, -0.00, -1.00, 560.4, 327.6)">n</text><text xml:space="preserve" font-family="Akkurat-Mono,Akkurat-Mono" font-size="36.0" fill="#000000" transform="matrix(1.00, 0.00, -0.00, -1.00, 582.7, 327.6)"> </text><text xml:space="preserve" font-family="Akkurat-Mono,Akkurat-Mono" font-size="36.0" fill="#000000" transform="matrix(1.00, 0.00, -0.00, -1.00, 605.0, 327.6)">f</text><text xml:space="preserve" font-family="Akkurat-Mono,Akkurat-Mono" font-size="36.0" fill="#000000" transform="matrix(1.00, 0.00, -0.00, -1.00, 627.4, 327.6)">o</text><text xml:space="preserve" font-family="Akkurat-Mono,Akkurat-Mono" font-size="36.0" fill="#000000" transform="matrix(1.00, 0.00, -0.00, -1.00, 649.7, 327.6)">r</text><text xml:space="preserve" font-family="Akkurat-Mono,Akkurat-Mono" font-size="36.0" fill="#000000" transform="matrix(1.00, 0.00, -0.00, -1.00, 672.0, 327.6)"> </text><text xml:space="preserve" font-family="Akkurat-Mono,Akkurat-Mono" font-size="36.0" fill="#000000" transform="matrix(1.00, 0.00, -0.00, -1.00, 694.3, 327.6)">y</text><text xml:space="preserve" font-family="Akkurat-Mono,Akkurat-Mono" font-size="36.0" fill="#000000" transform="matrix(1.00, 0.00, -0.00, -1.00, 716.6, 327.6)">o</text><text xml:space="preserve" font-family="Akkurat-Mono,Akkurat-Mono" font-size="36.0" fill="#000000" transform="matrix(1.00, 0.00, -0.00, -1.00, 739.0, 327.6)">u</text><text xml:space="preserve" font-family="Akkurat-Mono,Akkurat-Mono" font-size="36.0" fill="#000000" transform="matrix(1.00, 0.00, -0.00, -1.00, 761.3, 327.6)">r</text><text xml:space="preserve" font-family="Akkurat-Mono,Akkurat-Mono" font-size="36.0" fill="#000000" transform="matrix(1.00, 0.00, -0.00, -1.00, 783.6, 327.6)"> </text><text xml:space="preserve" font-family="Akkurat-Mono,Akkurat-Mono" font-size="36.0" fill="#000000" transform="matrix(1.00, 0.00, -0.00, -1.00, 114.0, 280.6)">C</text><text xml:space="preserve" font-family="Akkurat-Mono,Akkurat-Mono" font-size="36.0" fill="#000000" transform="matrix(1.00, 0.00, -0.00, -1.00, 136.3, 280.6)">o</text><text xml:space="preserve" font-family="Akkurat-Mono,Akkurat-Mono" font-size="36.0" fill="#000000" transform="matrix(1.00, 0.00, -0.00, -1.00, 158.6, 280.6)">m</text><text xml:space="preserve" font-family="Akkurat-Mono,Akkurat-Mono" font-size="36.0" fill="#000000" transform="matrix(1.00, 0.00, -0.00, -1.00, 181.0, 280.6)">m</text><text xml:space="preserve" font-family="Akkurat-Mono,Akkurat-Mono" font-size="36.0" fill="#000000" transform="matrix(1.00, 0.00, -0.00, -1.00, 203.3, 280.6)">a</text><text xml:space="preserve" font-family="Akkurat-Mono,Akkurat-Mono" font-size="36.0" fill="#000000" transform="matrix(1.00, 0.00, -0.00, -1.00, 225.6, 280.6)">n</text><text xml:space="preserve" font-family="Akkurat-Mono,Akkurat-Mono" font-size="36.0" fill="#000000" transform="matrix(1.00, 0.00, -0.00, -1.00, 247.9, 280.6)">d</text><text xml:space="preserve" font-family="Akkurat-Mono,Akkurat-Mono" font-size="36.0" fill="#000000" transform="matrix(1.00, 0.00, -0.00, -1.00, 270.2, 280.6)"> </text><text xml:space="preserve" font-family="Akkurat-Mono,Akkurat-Mono" font-size="36.0" fill="#000000" transform="matrix(1.00, 0.00, -0.00, -1.00, 292.6, 280.6)">L</text><text xml:space="preserve" font-family="Akkurat-Mono,Akkurat-Mono" font-size="36.0" fill="#000000" transform="matrix(1.00, 0.00, -0.00, -1.00, 314.9, 280.6)">i</text><text xml:space="preserve" font-family="Akkurat-Mono,Akkurat-Mono" font-size="36.0" fill="#000000" transform="matrix(1.00, 0.00, -0.00, -1.00, 337.2, 280.6)">n</text><text xml:space="preserve" font-family="Akkurat-Mono,Akkurat-Mono" font-size="36.0" fill="#000000" transform="matrix(1.00, 0.00, -0.00, -1.00, 359.5, 280.6)">e</text><text xml:space="preserve" font-family="Akkurat-Mono,Akkurat-Mono" font-size="36.0" fill="#000000" transform="matrix(1.00, 0.00, -0.00, -1.00, 381.8, 280.6)"> </text><text xml:space="preserve" font-family="Akkurat-Mono,Akkurat-Mono" font-size="36.0" fill="#000000" transform="matrix(1.00, 0.00, -0.00, -1.00, 404.2, 280.6)">I</text><text xml:space="preserve" font-family="Akkurat-Mono,Akkurat-Mono" font-size="36.0" fill="#000000" transform="matrix(1.00, 0.00, -0.00, -1.00, 426.5, 280.6)">n</text><text xml:space="preserve" font-family="Akkurat-Mono,Akkurat-Mono" font-size="36.0" fill="#000000" transform="matrix(1.00, 0.00, -0.00, -1.00, 448.8, 280.6)">t</text><text xml:space="preserve" font-family="Akkurat-Mono,Akkurat-Mono" font-size="36.0" fill="#000000" transform="matrix(1.00, 0.00, -0.00, -1.00, 471.1, 280.6)">e</text><text xml:space="preserve" font-family="Akkurat-Mono,Akkurat-Mono" font-size="36.0" fill="#000000" transform="matrix(1.00, 0.00, -0.00, -1.00, 493.4, 280.6)">r</text><text xml:space="preserve" font-family="Akkurat-Mono,Akkurat-Mono" font-size="36.0" fill="#000000" transform="matrix(1.00, 0.00, -0.00, -1.00, 515.8, 280.6)">f</text><text xml:space="preserve" font-family="Akkurat-Mono,Akkurat-Mono" font-size="36.0" fill="#000000" transform="matrix(1.00, 0.00, -0.00, -1.00, 538.1, 280.6)">a</text><text xml:space="preserve" font-family="Akkurat-Mono,Akkurat-Mono" font-size="36.0" fill="#000000" transform="matrix(1.00, 0.00, -0.00, -1.00, 560.4, 280.6)">c</text><text xml:space="preserve" font-family="Akkurat-Mono,Akkurat-Mono" font-size="36.0" fill="#000000" transform="matrix(1.00, 0.00, -0.00, -1.00, 582.7, 280.6)">e</text><text xml:space="preserve" font-family="Akkurat-Mono,Akkurat-Mono" font-size="36.0" fill="#000000" transform="matrix(1.00, 0.00, -0.00, -1.00, 605.0, 280.6)"> </text><text xml:space="preserve" font-family="Akkurat-Mono,Akkurat-Mono" font-size="36.0" fill="#000000" transform="matrix(1.00, 0.00, -0.00, -1.00, 627.4, 280.6)">(</text><text xml:space="preserve" font-family="Akkurat-Mono,Akkurat-Mono" font-size="36.0" fill="#000000" transform="matrix(1.00, 0.00, -0.00, -1.00, 649.7, 280.6)">C</text><text xml:space="preserve" font-family="Akkurat-Mono,Akkurat-Mono" font-size="36.0" fill="#000000" transform="matrix(1.00, 0.00, -0.00, -1.00, 672.0, 280.6)">L</text><text xml:space="preserve" font-family="Akkurat-Mono,Akkurat-Mono" font-size="36.0" fill="#000000" transform="matrix(1.00, 0.00, -0.00, -1.00, 694.3, 280.6)">I</text><text xml:space="preserve" font-family="Akkurat-Mono,Akkurat-Mono" font-size="36.0" fill="#000000" transform="matrix(1.00, 0.00, -0.00, -1.00, 716.6, 280.6)">)</text><text xml:space="preserve" font-family="Akkurat-Mono,Akkurat-Mono" font-size="36.0" fill="#000000" transform="matrix(1.00, 0.00, -0.00, -1.00, 739.0, 280.6)"> </text><text xml:space="preserve" font-family="Akkurat-Mono,Akkurat-Mono" font-size="27.0" fill="#000000" transform="matrix(1.00, 0.00, -0.00, -1.00, 79.0, 194.1)">•</text><text xml:space="preserve" font-family="Akkurat-Mono,Akkurat-Mono" font-size="36.0" fill="#000000" transform="matrix(1.00, 0.00, -0.00, -1.00, 114.0, 191.6)">n</text><text xml:space="preserve" font-family="Akkurat-Mono,Akkurat-Mono" font-size="36.0" fill="#000000" transform="matrix(1.00, 0.00, -0.00, -1.00, 136.3, 191.6)">o</text><text xml:space="preserve" font-family="Akkurat-Mono,Akkurat-Mono" font-size="36.0" fill="#000000" transform="matrix(1.00, 0.00, -0.00, -1.00, 158.6, 191.6)">t</text><text xml:space="preserve" font-family="Akkurat-Mono,Akkurat-Mono" font-size="36.0" fill="#000000" transform="matrix(1.00, 0.00, -0.00, -1.00, 181.0, 191.6)"> </text><text xml:space="preserve" font-family="Akkurat-Mono,Akkurat-Mono" font-size="36.0" fill="#000000" transform="matrix(1.00, 0.00, -0.00, -1.00, 203.3, 191.6)">a</text><text xml:space="preserve" font-family="Akkurat-Mono,Akkurat-Mono" font-size="36.0" fill="#000000" transform="matrix(1.00, 0.00, -0.00, -1.00, 225.6, 191.6)">c</text><text xml:space="preserve" font-family="Akkurat-Mono,Akkurat-Mono" font-size="36.0" fill="#000000" transform="matrix(1.00, 0.00, -0.00, -1.00, 247.9, 191.6)">t</text><text xml:space="preserve" font-family="Akkurat-Mono,Akkurat-Mono" font-size="36.0" fill="#000000" transform="matrix(1.00, 0.00, -0.00, -1.00, 270.2, 191.6)">u</text><text xml:space="preserve" font-family="Akkurat-Mono,Akkurat-Mono" font-size="36.0" fill="#000000" transform="matrix(1.00, 0.00, -0.00, -1.00, 292.6, 191.6)">a</text><text xml:space="preserve" font-family="Akkurat-Mono,Akkurat-Mono" font-size="36.0" fill="#000000" transform="matrix(1.00, 0.00, -0.00, -1.00, 314.9, 191.6)">l</text><text xml:space="preserve" font-family="Akkurat-Mono,Akkurat-Mono" font-size="36.0" fill="#000000" transform="matrix(1.00, 0.00, -0.00, -1.00, 337.2, 191.6)">l</text><text xml:space="preserve" font-family="Akkurat-Mono,Akkurat-Mono" font-size="36.0" fill="#000000" transform="matrix(1.00, 0.00, -0.00, -1.00, 359.5, 191.6)">y</text><text xml:space="preserve" font-family="Akkurat-Mono,Akkurat-Mono" font-size="36.0" fill="#000000" transform="matrix(1.00, 0.00, -0.00, -1.00, 381.8, 191.6)"> </text><text xml:space="preserve" font-family="Akkurat-Mono,Akkurat-Mono" font-size="36.0" fill="#000000" transform="matrix(1.00, 0.00, -0.00, -1.00, 404.2, 191.6)">s</text><text xml:space="preserve" font-family="Akkurat-Mono,Akkurat-Mono" font-size="36.0" fill="#000000" transform="matrix(1.00, 0.00, -0.00, -1.00, 426.5, 191.6)">c</text><text xml:space="preserve" font-family="Akkurat-Mono,Akkurat-Mono" font-size="36.0" fill="#000000" transform="matrix(1.00, 0.00, -0.00, -1.00, 448.8, 191.6)">a</text><text xml:space="preserve" font-family="Akkurat-Mono,Akkurat-Mono" font-size="36.0" fill="#000000" transform="matrix(1.00, 0.00, -0.00, -1.00, 471.1, 191.6)">r</text><text xml:space="preserve" font-family="Akkurat-Mono,Akkurat-Mono" font-size="36.0" fill="#000000" transform="matrix(1.00, 0.00, -0.00, -1.00, 493.4, 191.6)">y</text></g></svg>