<?xml version="1.0" encoding="UTF-8" standalone="no"?><svg xmlns="http://www.w3.org/2000/svg" xmlns:xlink="http://www.w3.org/1999/xlink" clip-rule="evenodd" stroke-miterlimit="10" viewBox="0 0 1024 768"><desc>SVG generated by Keynote</desc><defs></defs><g transform="matrix(1.00, 0.00, -0.00, -1.00, 0.0, 768.0)"><path d="M 0.0 768.0 L 1024.0 768.0 L 1024.0 0.0 L 0.0 0.0 Z M 0.0 768.0 " fill="#FEFFFF"></path><g><clipPath id="clip0x7f9571059ca0"><path d="M 242.0 491.0 L 782.0 491.0 L 782.0 87.0 L 242.0 87.0 Z M 242.5 491.3 "></path></clipPath><g clip-path="url(#clip0x7f9571059ca0)"><image xlink:href="../../E7CC5CB2-29A7-4754-A2FA-F38C68BA94DD/assets/D548EF08B937790CAC71CFBFB0813E0B.png" width="415.00" height="144.00" transform="matrix(1.30, 0.00, -0.00, -1.30, 242.0, 383.0)"></image></g></g><text xml:space="preserve" font-family="Akkurat-Mono,Akkurat-Mono" font-size="80.0" fill="#000000" transform="matrix(1.00, 0.00, -0.00, -1.00, 189.6, 621.3)">c</text><text xml:space="preserve" font-family="Akkurat-Mono,Akkurat-Mono" font-size="80.0" fill="#000000" transform="matrix(1.00, 0.00, -0.00, -1.00, 239.2, 621.3)">u</text><text xml:space="preserve" font-family="Akkurat-Mono,Akkurat-Mono" font-size="80.0" fill="#000000" transform="matrix(1.00, 0.00, -0.00, -1.00, 288.8, 621.3)">s</text><text xml:space="preserve" font-family="Akkurat-Mono,Akkurat-Mono" font-size="80.0" fill="#000000" transform="matrix(1.00, 0.00, -0.00, -1.00, 338.4, 621.3)">t</text><text xml:space="preserve" font-family="Akkurat-Mono,Akkurat-Mono" font-size="80.0" fill="#000000" transform="matrix(1.00, 0.00, -0.00, -1.00, 388.0, 621.3)">o</text><text xml:space="preserve" font-family="Akkurat-Mono,Akkurat-Mono" font-size="80.0" fill="#000000" transform="matrix(1.00, 0.00, -0.00, -1.00, 437.6, 621.3)">m</text><text xml:space="preserve" font-family="Akkurat-Mono,Akkurat-Mono" font-size="80.0" fill="#000000" transform="matrix(1.00, 0.00, -0.00, -1.00, 487.2, 621.3)"> </text><text xml:space="preserve" font-family="Akkurat-Mono,Akkurat-Mono" font-size="80.0" fill="#000000" transform="matrix(1.00, 0.00, -0.00, -1.00, 536.8, 621.3)">p</text><text xml:space="preserve" font-family="Akkurat-Mono,Akkurat-Mono" font-size="80.0" fill="#000000" transform="matrix(1.00, 0.00, -0.00, -1.00, 586.4, 621.3)">r</text><text xml:space="preserve" font-family="Akkurat-Mono,Akkurat-Mono" font-size="80.0" fill="#000000" transform="matrix(1.00, 0.00, -0.00, -1.00, 636.0, 621.3)">o</text><text xml:space="preserve" font-family="Akkurat-Mono,Akkurat-Mono" font-size="80.0" fill="#000000" transform="matrix(1.00, 0.00, -0.00, -1.00, 685.6, 621.3)">m</text><text xml:space="preserve" font-family="Akkurat-Mono,Akkurat-Mono" font-size="80.0" fill="#000000" transform="matrix(1.00, 0.00, -0.00, -1.00, 735.2, 621.3)">p</text><text xml:space="preserve" font-family="Akkurat-Mono,Akkurat-Mono" font-size="80.0" fill="#000000" transform="matrix(1.00, 0.00, -0.00, -1.00, 784.8, 621.3)">t</text><text xml:space="preserve" font-family="Akkurat-Mono,Akkurat-Mono" font-size="24.0" fill="#000000" transform="matrix(1.00, 0.00, -0.00, -1.00, 155.9, 492.0)">c</text><text xml:space="preserve" font-family="Akkurat-Mono,Akkurat-Mono" font-size="24.0" fill="#000000" transform="matrix(1.00, 0.00, -0.00, -1.00, 170.7, 492.0)">u</text><text xml:space="preserve" font-family="Akkurat-Mono,Akkurat-Mono" font-size="24.0" fill="#000000" transform="matrix(1.00, 0.00, -0.00, -1.00, 185.6, 492.0)">s</text><text xml:space="preserve" font-family="Akkurat-Mono,Akkurat-Mono" font-size="24.0" fill="#000000" transform="matrix(1.00, 0.00, -0.00, -1.00, 200.5, 492.0)">t</text><text xml:space="preserve" font-family="Akkurat-Mono,Akkurat-Mono" font-size="24.0" fill="#000000" transform="matrix(1.00, 0.00, -0.00, -1.00, 215.4, 492.0)">o</text><text xml:space="preserve" font-family="Akkurat-Mono,Akkurat-Mono" font-size="24.0" fill="#000000" transform="matrix(1.00, 0.00, -0.00, -1.00, 230.3, 492.0)">m</text><text xml:space="preserve" font-family="Akkurat-Mono,Akkurat-Mono" font-size="24.0" fill="#000000" transform="matrix(1.00, 0.00, -0.00, -1.00, 245.1, 492.0)"> </text><text xml:space="preserve" font-family="Akkurat-Mono,Akkurat-Mono" font-size="24.0" fill="#000000" transform="matrix(1.00, 0.00, -0.00, -1.00, 260.0, 492.0)">c</text><text xml:space="preserve" font-family="Akkurat-Mono,Akkurat-Mono" font-size="24.0" fill="#000000" transform="matrix(1.00, 0.00, -0.00, -1.00, 274.9, 492.0)">o</text><text xml:space="preserve" font-family="Akkurat-Mono,Akkurat-Mono" font-size="24.0" fill="#000000" transform="matrix(1.00, 0.00, -0.00, -1.00, 289.8, 492.0)">l</text><text xml:space="preserve" font-family="Akkurat-Mono,Akkurat-Mono" font-size="24.0" fill="#000000" transform="matrix(1.00, 0.00, -0.00, -1.00, 304.7, 492.0)">o</text><text xml:space="preserve" font-family="Akkurat-Mono,Akkurat-Mono" font-size="24.0" fill="#000000" transform="matrix(1.00, 0.00, -0.00, -1.00, 319.5, 492.0)">r</text><text xml:space="preserve" font-family="Akkurat-Mono,Akkurat-Mono" font-size="24.0" fill="#000000" transform="matrix(1.00, 0.00, -0.00, -1.00, 334.4, 492.0)"> </text><text xml:space="preserve" font-family="Akkurat-Mono,Akkurat-Mono" font-size="24.0" fill="#000000" transform="matrix(1.00, 0.00, -0.00, -1.00, 155.9, 460.0)">v</text><text xml:space="preserve" font-family="Akkurat-Mono,Akkurat-Mono" font-size="24.0" fill="#000000" transform="matrix(1.00, 0.00, -0.00, -1.00, 170.7, 460.0)">a</text><text xml:space="preserve" font-family="Akkurat-Mono,Akkurat-Mono" font-size="24.0" fill="#000000" transform="matrix(1.00, 0.00, -0.00, -1.00, 185.6, 460.0)">r</text><text xml:space="preserve" font-family="Akkurat-Mono,Akkurat-Mono" font-size="24.0" fill="#000000" transform="matrix(1.00, 0.00, -0.00, -1.00, 200.5, 460.0)">s</text><path d="M 0.0 0.0 L 76.0 0.0 L 78.5 0.0 " fill="none" stroke="#00FCFF" stroke-width="5.00" transform="matrix(0.71, -0.71, -0.71, -0.71, 244.4, 469.5)"></path><path d="M 290.9 408.6 L 312.5 401.4 L 305.3 423.0 Z M 290.9 408.6 " fill="#00FCFF"></path><text xml:space="preserve" font-family="Akkurat-Mono,Akkurat-Mono" font-size="24.0" fill="#000000" transform="matrix(1.00, 0.00, -0.00, -1.00, 67.7, 150.5)">P</text><text xml:space="preserve" font-family="Akkurat-Mono,Akkurat-Mono" font-size="24.0" fill="#000000" transform="matrix(1.00, 0.00, -0.00, -1.00, 82.5, 150.5)">S</text><text xml:space="preserve" font-family="Akkurat-Mono,Akkurat-Mono" font-size="24.0" fill="#000000" transform="matrix(1.00, 0.00, -0.00, -1.00, 97.4, 150.5)">1</text><text xml:space="preserve" font-family="Akkurat-Mono,Akkurat-Mono" font-size="24.0" fill="#000000" transform="matrix(1.00, 0.00, -0.00, -1.00, 112.3, 150.5)"> </text><text xml:space="preserve" font-family="Akkurat-Mono,Akkurat-Mono" font-size="24.0" fill="#000000" transform="matrix(1.00, 0.00, -0.00, -1.00, 127.2, 150.5)">=</text><text xml:space="preserve" font-family="Akkurat-Mono,Akkurat-Mono" font-size="24.0" fill="#000000" transform="matrix(1.00, 0.00, -0.00, -1.00, 142.1, 150.5)"> </text><text xml:space="preserve" font-family="Akkurat-Mono,Akkurat-Mono" font-size="24.0" fill="#000000" transform="matrix(1.00, 0.00, -0.00, -1.00, 156.9, 150.5)">d</text><text xml:space="preserve" font-family="Akkurat-Mono,Akkurat-Mono" font-size="24.0" fill="#000000" transform="matrix(1.00, 0.00, -0.00, -1.00, 171.8, 150.5)">e</text><text xml:space="preserve" font-family="Akkurat-Mono,Akkurat-Mono" font-size="24.0" fill="#000000" transform="matrix(1.00, 0.00, -0.00, -1.00, 186.7, 150.5)">f</text><text xml:space="preserve" font-family="Akkurat-Mono,Akkurat-Mono" font-size="24.0" fill="#000000" transform="matrix(1.00, 0.00, -0.00, -1.00, 201.6, 150.5)">a</text><text xml:space="preserve" font-family="Akkurat-Mono,Akkurat-Mono" font-size="24.0" fill="#000000" transform="matrix(1.00, 0.00, -0.00, -1.00, 216.5, 150.5)">u</text><text xml:space="preserve" font-family="Akkurat-Mono,Akkurat-Mono" font-size="24.0" fill="#000000" transform="matrix(1.00, 0.00, -0.00, -1.00, 231.3, 150.5)">l</text><text xml:space="preserve" font-family="Akkurat-Mono,Akkurat-Mono" font-size="24.0" fill="#000000" transform="matrix(1.00, 0.00, -0.00, -1.00, 246.2, 150.5)">t</text><text xml:space="preserve" font-family="Akkurat-Mono,Akkurat-Mono" font-size="24.0" fill="#000000" transform="matrix(1.00, 0.00, -0.00, -1.00, 261.1, 150.5)"> </text><text xml:space="preserve" font-family="Akkurat-Mono,Akkurat-Mono" font-size="24.0" fill="#000000" transform="matrix(1.00, 0.00, -0.00, -1.00, 67.7, 118.5)">i</text><text xml:space="preserve" font-family="Akkurat-Mono,Akkurat-Mono" font-size="24.0" fill="#000000" transform="matrix(1.00, 0.00, -0.00, -1.00, 82.5, 118.5)">n</text><text xml:space="preserve" font-family="Akkurat-Mono,Akkurat-Mono" font-size="24.0" fill="#000000" transform="matrix(1.00, 0.00, -0.00, -1.00, 97.4, 118.5)">t</text><text xml:space="preserve" font-family="Akkurat-Mono,Akkurat-Mono" font-size="24.0" fill="#000000" transform="matrix(1.00, 0.00, -0.00, -1.00, 112.3, 118.5)">e</text><text xml:space="preserve" font-family="Akkurat-Mono,Akkurat-Mono" font-size="24.0" fill="#000000" transform="matrix(1.00, 0.00, -0.00, -1.00, 127.2, 118.5)">r</text><text xml:space="preserve" font-family="Akkurat-Mono,Akkurat-Mono" font-size="24.0" fill="#000000" transform="matrix(1.00, 0.00, -0.00, -1.00, 142.1, 118.5)">a</text><text xml:space="preserve" font-family="Akkurat-Mono,Akkurat-Mono" font-size="24.0" fill="#000000" transform="matrix(1.00, 0.00, -0.00, -1.00, 156.9, 118.5)">c</text><text xml:space="preserve" font-family="Akkurat-Mono,Akkurat-Mono" font-size="24.0" fill="#000000" transform="matrix(1.00, 0.00, -0.00, -1.00, 171.8, 118.5)">t</text><text xml:space="preserve" font-family="Akkurat-Mono,Akkurat-Mono" font-size="24.0" fill="#000000" transform="matrix(1.00, 0.00, -0.00, -1.00, 186.7, 118.5)">i</text><text xml:space="preserve" font-family="Akkurat-Mono,Akkurat-Mono" font-size="24.0" fill="#000000" transform="matrix(1.00, 0.00, -0.00, -1.00, 201.6, 118.5)">v</text><text xml:space="preserve" font-family="Akkurat-Mono,Akkurat-Mono" font-size="24.0" fill="#000000" transform="matrix(1.00, 0.00, -0.00, -1.00, 216.5, 118.5)">e</text><text xml:space="preserve" font-family="Akkurat-Mono,Akkurat-Mono" font-size="24.0" fill="#000000" transform="matrix(1.00, 0.00, -0.00, -1.00, 231.3, 118.5)"> </text><text xml:space="preserve" font-family="Akkurat-Mono,Akkurat-Mono" font-size="24.0" fill="#000000" transform="matrix(1.00, 0.00, -0.00, -1.00, 246.2, 118.5)">p</text><text xml:space="preserve" font-family="Akkurat-Mono,Akkurat-Mono" font-size="24.0" fill="#000000" transform="matrix(1.00, 0.00, -0.00, -1.00, 261.1, 118.5)">r</text><text xml:space="preserve" font-family="Akkurat-Mono,Akkurat-Mono" font-size="24.0" fill="#000000" transform="matrix(1.00, 0.00, -0.00, -1.00, 276.0, 118.5)">o</text><text xml:space="preserve" font-family="Akkurat-Mono,Akkurat-Mono" font-size="24.0" fill="#000000" transform="matrix(1.00, 0.00, -0.00, -1.00, 290.9, 118.5)">m</text><text xml:space="preserve" font-family="Akkurat-Mono,Akkurat-Mono" font-size="24.0" fill="#000000" transform="matrix(1.00, 0.00, -0.00, -1.00, 305.7, 118.5)">p</text><text xml:space="preserve" font-family="Akkurat-Mono,Akkurat-Mono" font-size="24.0" fill="#000000" transform="matrix(1.00, 0.00, -0.00, -1.00, 320.6, 118.5)">t</text><path d="M 0.0 0.0 L 140.9 0.0 L 143.4 0.0 " fill="none" stroke="#00FCFF" stroke-width="5.00" transform="matrix(0.83, 0.56, 0.56, -0.83, 96.6, 185.0)"></path><path d="M 219.4 254.7 L 230.7 274.5 L 208.0 271.7 Z M 219.4 254.7 " fill="#00FCFF"></path><text xml:space="preserve" font-family="Akkurat-Mono,Akkurat-Mono" font-size="24.0" fill="#000000" transform="matrix(1.00, 0.00, -0.00, -1.00, 702.1, 133.3)">\</text><text xml:space="preserve" font-family="Akkurat-Mono,Akkurat-Mono" font-size="24.0" fill="#000000" transform="matrix(1.00, 0.00, -0.00, -1.00, 717.0, 133.3)">u</text><text xml:space="preserve" font-family="Akkurat-Mono,Akkurat-Mono" font-size="24.0" fill="#000000" transform="matrix(1.00, 0.00, -0.00, -1.00, 731.9, 133.3)"> </text><text xml:space="preserve" font-family="Akkurat-Mono,Akkurat-Mono" font-size="24.0" fill="#000000" transform="matrix(1.00, 0.00, -0.00, -1.00, 746.7, 133.3)">=</text><text xml:space="preserve" font-family="Akkurat-Mono,Akkurat-Mono" font-size="24.0" fill="#000000" transform="matrix(1.00, 0.00, -0.00, -1.00, 761.6, 133.3)"> </text><text xml:space="preserve" font-family="Akkurat-Mono,Akkurat-Mono" font-size="24.0" fill="#000000" transform="matrix(1.00, 0.00, -0.00, -1.00, 776.5, 133.3)">u</text><text xml:space="preserve" font-family="Akkurat-Mono,Akkurat-Mono" font-size="24.0" fill="#000000" transform="matrix(1.00, 0.00, -0.00, -1.00, 791.4, 133.3)">s</text><text xml:space="preserve" font-family="Akkurat-Mono,Akkurat-Mono" font-size="24.0" fill="#000000" transform="matrix(1.00, 0.00, -0.00, -1.00, 806.3, 133.3)">e</text><text xml:space="preserve" font-family="Akkurat-Mono,Akkurat-Mono" font-size="24.0" fill="#000000" transform="matrix(1.00, 0.00, -0.00, -1.00, 821.1, 133.3)">r</text><text xml:space="preserve" font-family="Akkurat-Mono,Akkurat-Mono" font-size="24.0" fill="#000000" transform="matrix(1.00, 0.00, -0.00, -1.00, 836.0, 133.3)">n</text><text xml:space="preserve" font-family="Akkurat-Mono,Akkurat-Mono" font-size="24.0" fill="#000000" transform="matrix(1.00, 0.00, -0.00, -1.00, 850.9, 133.3)">a</text><text xml:space="preserve" font-family="Akkurat-Mono,Akkurat-Mono" font-size="24.0" fill="#000000" transform="matrix(1.00, 0.00, -0.00, -1.00, 865.8, 133.3)">m</text><text xml:space="preserve" font-family="Akkurat-Mono,Akkurat-Mono" font-size="24.0" fill="#000000" transform="matrix(1.00, 0.00, -0.00, -1.00, 880.7, 133.3)">e</text><text xml:space="preserve" font-family="Akkurat-Mono,Akkurat-Mono" font-size="24.0" fill="#000000" transform="matrix(1.00, 0.00, -0.00, -1.00, 895.5, 133.3)"> </text><text xml:space="preserve" font-family="Akkurat-Mono,Akkurat-Mono" font-size="24.0" fill="#52575F" transform="matrix(1.00, 0.00, -0.00, -1.00, 702.1, 101.3)">(</text><text xml:space="preserve" font-family="Akkurat-Mono,Akkurat-Mono" font-size="24.0" fill="#52575F" transform="matrix(1.00, 0.00, -0.00, -1.00, 717.0, 101.3)">a</text><text xml:space="preserve" font-family="Akkurat-Mono,Akkurat-Mono" font-size="24.0" fill="#52575F" transform="matrix(1.00, 0.00, -0.00, -1.00, 731.9, 101.3)">k</text><text xml:space="preserve" font-family="Akkurat-Mono,Akkurat-Mono" font-size="24.0" fill="#52575F" transform="matrix(1.00, 0.00, -0.00, -1.00, 746.7, 101.3)">i</text><text xml:space="preserve" font-family="Akkurat-Mono,Akkurat-Mono" font-size="24.0" fill="#52575F" transform="matrix(1.00, 0.00, -0.00, -1.00, 761.6, 101.3)">e</text><text xml:space="preserve" font-family="Akkurat-Mono,Akkurat-Mono" font-size="24.0" fill="#52575F" transform="matrix(1.00, 0.00, -0.00, -1.00, 776.5, 101.3)">v</text><text xml:space="preserve" font-family="Akkurat-Mono,Akkurat-Mono" font-size="24.0" fill="#52575F" transform="matrix(1.00, 0.00, -0.00, -1.00, 791.4, 101.3)">e</text><text xml:space="preserve" font-family="Akkurat-Mono,Akkurat-Mono" font-size="24.0" fill="#52575F" transform="matrix(1.00, 0.00, -0.00, -1.00, 806.3, 101.3)">t</text><text xml:space="preserve" font-family="Akkurat-Mono,Akkurat-Mono" font-size="24.0" fill="#52575F" transform="matrix(1.00, 0.00, -0.00, -1.00, 821.1, 101.3)">)</text><text xml:space="preserve" font-family="Akkurat-Mono,Akkurat-Mono" font-size="24.0" fill="#52575F" transform="matrix(1.00, 0.00, -0.00, -1.00, 836.0, 101.3)"> </text><text xml:space="preserve" font-family="Akkurat-Mono,Akkurat-Mono" font-size="24.0" fill="#000000" transform="matrix(1.00, 0.00, -0.00, -1.00, 702.1, 37.3)">\</text><text xml:space="preserve" font-family="Akkurat-Mono,Akkurat-Mono" font-size="24.0" fill="#000000" transform="matrix(1.00, 0.00, -0.00, -1.00, 717.0, 37.3)">w</text><text xml:space="preserve" font-family="Akkurat-Mono,Akkurat-Mono" font-size="24.0" fill="#000000" transform="matrix(1.00, 0.00, -0.00, -1.00, 731.9, 37.3)"> </text><text xml:space="preserve" font-family="Akkurat-Mono,Akkurat-Mono" font-size="24.0" fill="#000000" transform="matrix(1.00, 0.00, -0.00, -1.00, 746.7, 37.3)">=</text><text xml:space="preserve" font-family="Akkurat-Mono,Akkurat-Mono" font-size="24.0" fill="#000000" transform="matrix(1.00, 0.00, -0.00, -1.00, 761.6, 37.3)"> </text><text xml:space="preserve" font-family="Akkurat-Mono,Akkurat-Mono" font-size="24.0" fill="#000000" transform="matrix(1.00, 0.00, -0.00, -1.00, 776.5, 37.3)">w</text><text xml:space="preserve" font-family="Akkurat-Mono,Akkurat-Mono" font-size="24.0" fill="#000000" transform="matrix(1.00, 0.00, -0.00, -1.00, 791.4, 37.3)">o</text><text xml:space="preserve" font-family="Akkurat-Mono,Akkurat-Mono" font-size="24.0" fill="#000000" transform="matrix(1.00, 0.00, -0.00, -1.00, 806.3, 37.3)">r</text><text xml:space="preserve" font-family="Akkurat-Mono,Akkurat-Mono" font-size="24.0" fill="#000000" transform="matrix(1.00, 0.00, -0.00, -1.00, 821.1, 37.3)">k</text><text xml:space="preserve" font-family="Akkurat-Mono,Akkurat-Mono" font-size="24.0" fill="#000000" transform="matrix(1.00, 0.00, -0.00, -1.00, 836.0, 37.3)">i</text><text xml:space="preserve" font-family="Akkurat-Mono,Akkurat-Mono" font-size="24.0" fill="#000000" transform="matrix(1.00, 0.00, -0.00, -1.00, 850.9, 37.3)">n</text><text xml:space="preserve" font-family="Akkurat-Mono,Akkurat-Mono" font-size="24.0" fill="#000000" transform="matrix(1.00, 0.00, -0.00, -1.00, 865.8, 37.3)">g</text><text xml:space="preserve" font-family="Akkurat-Mono,Akkurat-Mono" font-size="24.0" fill="#000000" transform="matrix(1.00, 0.00, -0.00, -1.00, 880.7, 37.3)"> </text><text xml:space="preserve" font-family="Akkurat-Mono,Akkurat-Mono" font-size="24.0" fill="#000000" transform="matrix(1.00, 0.00, -0.00, -1.00, 895.5, 37.3)">p</text><text xml:space="preserve" font-family="Akkurat-Mono,Akkurat-Mono" font-size="24.0" fill="#000000" transform="matrix(1.00, 0.00, -0.00, -1.00, 910.4, 37.3)">a</text><text xml:space="preserve" font-family="Akkurat-Mono,Akkurat-Mono" font-size="24.0" fill="#000000" transform="matrix(1.00, 0.00, -0.00, -1.00, 925.3, 37.3)">t</text><text xml:space="preserve" font-family="Akkurat-Mono,Akkurat-Mono" font-size="24.0" fill="#000000" transform="matrix(1.00, 0.00, -0.00, -1.00, 940.2, 37.3)">h</text><path d="M 0.0 0.0 L 133.0 0.0 L 135.5 0.0 " fill="none" stroke="#00FCFF" stroke-width="5.00" transform="matrix(-0.77, 0.64, 0.64, 0.77, 708.6, 180.9)"></path><path d="M 612.5 273.4 L 590.3 278.5 L 599.5 257.6 Z M 612.5 273.4 " fill="#00FCFF"></path><path d="M 0.0 0.0 L 172.6 0.0 L 175.1 0.0 " fill="none" stroke="#00FCFF" stroke-width="5.00" transform="matrix(-0.48, 0.87, 0.87, 0.48, 682.7, 67.0)"></path><path d="M 608.0 222.9 L 589.2 235.8 L 590.2 213.0 Z M 608.0 222.9 " fill="#00FCFF"></path><text xml:space="preserve" font-family="Akkurat-Mono,Akkurat-Mono" font-size="36.0" fill="#000000" transform="matrix(1.00, 0.00, -0.00, -1.00, 187.7, 552.9)">a</text><text xml:space="preserve" font-family="Akkurat-Mono,Akkurat-Mono" font-size="36.0" fill="#000000" transform="matrix(1.00, 0.00, -0.00, -1.00, 210.0, 552.9)">k</text><text xml:space="preserve" font-family="Akkurat-Mono,Akkurat-Mono" font-size="36.0" fill="#000000" transform="matrix(1.00, 0.00, -0.00, -1.00, 232.3, 552.9)">i</text><text xml:space="preserve" font-family="Akkurat-Mono,Akkurat-Mono" font-size="36.0" fill="#000000" transform="matrix(1.00, 0.00, -0.00, -1.00, 254.6, 552.9)">e</text><text xml:space="preserve" font-family="Akkurat-Mono,Akkurat-Mono" font-size="36.0" fill="#000000" transform="matrix(1.00, 0.00, -0.00, -1.00, 276.9, 552.9)">v</text><text xml:space="preserve" font-family="Akkurat-Mono,Akkurat-Mono" font-size="36.0" fill="#000000" transform="matrix(1.00, 0.00, -0.00, -1.00, 299.3, 552.9)">e</text><text xml:space="preserve" font-family="Akkurat-Mono,Akkurat-Mono" font-size="36.0" fill="#000000" transform="matrix(1.00, 0.00, -0.00, -1.00, 321.6, 552.9)">t</text><text xml:space="preserve" font-family="Akkurat-Mono,Akkurat-Mono" font-size="36.0" fill="#000000" transform="matrix(1.00, 0.00, -0.00, -1.00, 343.9, 552.9)"> </text><text xml:space="preserve" font-family="Akkurat-Mono,Akkurat-Mono" font-size="36.0" fill="#61DCF9" transform="matrix(1.00, 0.00, -0.00, -1.00, 366.2, 552.9)">~</text><text xml:space="preserve" font-family="Akkurat-Mono,Akkurat-Mono" font-size="36.0" fill="#61DCF9" transform="matrix(1.00, 0.00, -0.00, -1.00, 388.5, 552.9)">/</text><text xml:space="preserve" font-family="Akkurat-Mono,Akkurat-Mono" font-size="36.0" fill="#61DCF9" transform="matrix(1.00, 0.00, -0.00, -1.00, 410.9, 552.9)">s</text><text xml:space="preserve" font-family="Akkurat-Mono,Akkurat-Mono" font-size="36.0" fill="#61DCF9" transform="matrix(1.00, 0.00, -0.00, -1.00, 433.2, 552.9)">r</text><text xml:space="preserve" font-family="Akkurat-Mono,Akkurat-Mono" font-size="36.0" fill="#61DCF9" transform="matrix(1.00, 0.00, -0.00, -1.00, 455.5, 552.9)">c</text><text xml:space="preserve" font-family="Akkurat-Mono,Akkurat-Mono" font-size="36.0" fill="#61DCF9" transform="matrix(1.00, 0.00, -0.00, -1.00, 477.8, 552.9)">/</text><text xml:space="preserve" font-family="Akkurat-Mono,Akkurat-Mono" font-size="36.0" fill="#61DCF9" transform="matrix(1.00, 0.00, -0.00, -1.00, 500.1, 552.9)">t</text><text xml:space="preserve" font-family="Akkurat-Mono,Akkurat-Mono" font-size="36.0" fill="#61DCF9" transform="matrix(1.00, 0.00, -0.00, -1.00, 522.5, 552.9)">e</text><text xml:space="preserve" font-family="Akkurat-Mono,Akkurat-Mono" font-size="36.0" fill="#61DCF9" transform="matrix(1.00, 0.00, -0.00, -1.00, 544.8, 552.9)">m</text><text xml:space="preserve" font-family="Akkurat-Mono,Akkurat-Mono" font-size="36.0" fill="#61DCF9" transform="matrix(1.00, 0.00, -0.00, -1.00, 567.1, 552.9)">p</text><text xml:space="preserve" font-family="Akkurat-Mono,Akkurat-Mono" font-size="36.0" fill="#61DCF9" transform="matrix(1.00, 0.00, -0.00, -1.00, 589.4, 552.9)">/</text><text xml:space="preserve" font-family="Akkurat-Mono,Akkurat-Mono" font-size="36.0" fill="#61DCF9" transform="matrix(1.00, 0.00, -0.00, -1.00, 611.7, 552.9)">m</text><text xml:space="preserve" font-family="Akkurat-Mono,Akkurat-Mono" font-size="36.0" fill="#61DCF9" transform="matrix(1.00, 0.00, -0.00, -1.00, 634.1, 552.9)">y</text><text xml:space="preserve" font-family="Akkurat-Mono,Akkurat-Mono" font-size="36.0" fill="#61DCF9" transform="matrix(1.00, 0.00, -0.00, -1.00, 656.4, 552.9)">p</text><text xml:space="preserve" font-family="Akkurat-Mono,Akkurat-Mono" font-size="36.0" fill="#61DCF9" transform="matrix(1.00, 0.00, -0.00, -1.00, 678.7, 552.9)">r</text><text xml:space="preserve" font-family="Akkurat-Mono,Akkurat-Mono" font-size="36.0" fill="#61DCF9" transform="matrix(1.00, 0.00, -0.00, -1.00, 701.0, 552.9)">o</text><text xml:space="preserve" font-family="Akkurat-Mono,Akkurat-Mono" font-size="36.0" fill="#61DCF9" transform="matrix(1.00, 0.00, -0.00, -1.00, 723.3, 552.9)">j</text><text xml:space="preserve" font-family="Akkurat-Mono,Akkurat-Mono" font-size="36.0" fill="#61DCF9" transform="matrix(1.00, 0.00, -0.00, -1.00, 745.7, 552.9)">e</text><text xml:space="preserve" font-family="Akkurat-Mono,Akkurat-Mono" font-size="36.0" fill="#61DCF9" transform="matrix(1.00, 0.00, -0.00, -1.00, 768.0, 552.9)">c</text><text xml:space="preserve" font-family="Akkurat-Mono,Akkurat-Mono" font-size="36.0" fill="#61DCF9" transform="matrix(1.00, 0.00, -0.00, -1.00, 790.3, 552.9)">t</text></g></svg>