<?xml version="1.0" encoding="UTF-8" standalone="no"?><svg xmlns="http://www.w3.org/2000/svg" xmlns:xlink="http://www.w3.org/1999/xlink" clip-rule="evenodd" stroke-miterlimit="10" viewBox="0 0 633 73"><desc>SVG generated by Keynote</desc><defs></defs><g transform="matrix(1.00, 0.00, -0.00, -1.00, 0.0, 73.0)"><text xml:space="preserve" font-family="Akkurat-Mono,Akkurat-Mono" font-size="80.0" fill="#000000" transform="matrix(1.00, 0.00, -0.00, -1.00, -5.4, 18.3)">c</text><text xml:space="preserve" font-family="Akkurat-Mono,Akkurat-Mono" font-size="80.0" fill="#000000" transform="matrix(1.00, 0.00, -0.00, -1.00, 44.2, 18.3)">u</text><text xml:space="preserve" font-family="Akkurat-Mono,Akkurat-Mono" font-size="80.0" fill="#000000" transform="matrix(1.00, 0.00, -0.00, -1.00, 93.8, 18.3)">s</text><text xml:space="preserve" font-family="Akkurat-Mono,Akkurat-Mono" font-size="80.0" fill="#000000" transform="matrix(1.00, 0.00, -0.00, -1.00, 143.4, 18.3)">t</text><text xml:space="preserve" font-family="Akkurat-Mono,Akkurat-Mono" font-size="80.0" fill="#000000" transform="matrix(1.00, 0.00, -0.00, -1.00, 193.0, 18.3)">o</text><text xml:space="preserve" font-family="Akkurat-Mono,Akkurat-Mono" font-size="80.0" fill="#000000" transform="matrix(1.00, 0.00, -0.00, -1.00, 242.6, 18.3)">m</text><text xml:space="preserve" font-family="Akkurat-Mono,Akkurat-Mono" font-size="80.0" fill="#000000" transform="matrix(1.00, 0.00, -0.00, -1.00, 292.2, 18.3)"> </text><text xml:space="preserve" font-family="Akkurat-Mono,Akkurat-Mono" font-size="80.0" fill="#000000" transform="matrix(1.00, 0.00, -0.00, -1.00, 341.8, 18.3)">p</text><text xml:space="preserve" font-family="Akkurat-Mono,Akkurat-Mono" font-size="80.0" fill="#000000" transform="matrix(1.00, 0.00, -0.00, -1.00, 391.4, 18.3)">r</text><text xml:space="preserve" font-family="Akkurat-Mono,Akkurat-Mono" font-size="80.0" fill="#000000" transform="matrix(1.00, 0.00, -0.00, -1.00, 441.0, 18.3)">o</text><text xml:space="preserve" font-family="Akkurat-Mono,Akkurat-Mono" font-size="80.0" fill="#000000" transform="matrix(1.00, 0.00, -0.00, -1.00, 490.6, 18.3)">m</text><text xml:space="preserve" font-family="Akkurat-Mono,Akkurat-Mono" font-size="80.0" fill="#000000" transform="matrix(1.00, 0.00, -0.00, -1.00, 540.2, 18.3)">p</text><text xml:space="preserve" font-family="Akkurat-Mono,Akkurat-Mono" font-size="80.0" fill="#000000" transform="matrix(1.00, 0.00, -0.00, -1.00, 589.8, 18.3)">t</text></g></svg>