<?xml version="1.0" encoding="UTF-8" standalone="no"?><svg xmlns="http://www.w3.org/2000/svg" xmlns:xlink="http://www.w3.org/1999/xlink" clip-rule="evenodd" stroke-miterlimit="10" viewBox="0 0 623 38"><desc>SVG generated by Keynote</desc><defs></defs><g transform="matrix(1.00, 0.00, -0.00, -1.00, 0.0, 38.0)"><text xml:space="preserve" font-family="Akkurat-Mono,Akkurat-Mono" font-size="36.0" fill="#000000" transform="matrix(1.00, 0.00, -0.00, -1.00, -0.3, 9.9)">a</text><text xml:space="preserve" font-family="Akkurat-Mono,Akkurat-Mono" font-size="36.0" fill="#000000" transform="matrix(1.00, 0.00, -0.00, -1.00, 22.0, 9.9)">k</text><text xml:space="preserve" font-family="Akkurat-Mono,Akkurat-Mono" font-size="36.0" fill="#000000" transform="matrix(1.00, 0.00, -0.00, -1.00, 44.3, 9.9)">i</text><text xml:space="preserve" font-family="Akkurat-Mono,Akkurat-Mono" font-size="36.0" fill="#000000" transform="matrix(1.00, 0.00, -0.00, -1.00, 66.6, 9.9)">e</text><text xml:space="preserve" font-family="Akkurat-Mono,Akkurat-Mono" font-size="36.0" fill="#000000" transform="matrix(1.00, 0.00, -0.00, -1.00, 88.9, 9.9)">v</text><text xml:space="preserve" font-family="Akkurat-Mono,Akkurat-Mono" font-size="36.0" fill="#000000" transform="matrix(1.00, 0.00, -0.00, -1.00, 111.3, 9.9)">e</text><text xml:space="preserve" font-family="Akkurat-Mono,Akkurat-Mono" font-size="36.0" fill="#000000" transform="matrix(1.00, 0.00, -0.00, -1.00, 133.6, 9.9)">t</text><text xml:space="preserve" font-family="Akkurat-Mono,Akkurat-Mono" font-size="36.0" fill="#000000" transform="matrix(1.00, 0.00, -0.00, -1.00, 155.9, 9.9)"> </text><text xml:space="preserve" font-family="Akkurat-Mono,Akkurat-Mono" font-size="36.0" fill="#61DCF9" transform="matrix(1.00, 0.00, -0.00, -1.00, 178.2, 9.9)">~</text><text xml:space="preserve" font-family="Akkurat-Mono,Akkurat-Mono" font-size="36.0" fill="#61DCF9" transform="matrix(1.00, 0.00, -0.00, -1.00, 200.5, 9.9)">/</text><text xml:space="preserve" font-family="Akkurat-Mono,Akkurat-Mono" font-size="36.0" fill="#61DCF9" transform="matrix(1.00, 0.00, -0.00, -1.00, 222.9, 9.9)">s</text><text xml:space="preserve" font-family="Akkurat-Mono,Akkurat-Mono" font-size="36.0" fill="#61DCF9" transform="matrix(1.00, 0.00, -0.00, -1.00, 245.2, 9.9)">r</text><text xml:space="preserve" font-family="Akkurat-Mono,Akkurat-Mono" font-size="36.0" fill="#61DCF9" transform="matrix(1.00, 0.00, -0.00, -1.00, 267.5, 9.9)">c</text><text xml:space="preserve" font-family="Akkurat-Mono,Akkurat-Mono" font-size="36.0" fill="#61DCF9" transform="matrix(1.00, 0.00, -0.00, -1.00, 289.8, 9.9)">/</text><text xml:space="preserve" font-family="Akkurat-Mono,Akkurat-Mono" font-size="36.0" fill="#61DCF9" transform="matrix(1.00, 0.00, -0.00, -1.00, 312.1, 9.9)">t</text><text xml:space="preserve" font-family="Akkurat-Mono,Akkurat-Mono" font-size="36.0" fill="#61DCF9" transform="matrix(1.00, 0.00, -0.00, -1.00, 334.5, 9.9)">e</text><text xml:space="preserve" font-family="Akkurat-Mono,Akkurat-Mono" font-size="36.0" fill="#61DCF9" transform="matrix(1.00, 0.00, -0.00, -1.00, 356.8, 9.9)">m</text><text xml:space="preserve" font-family="Akkurat-Mono,Akkurat-Mono" font-size="36.0" fill="#61DCF9" transform="matrix(1.00, 0.00, -0.00, -1.00, 379.1, 9.9)">p</text><text xml:space="preserve" font-family="Akkurat-Mono,Akkurat-Mono" font-size="36.0" fill="#61DCF9" transform="matrix(1.00, 0.00, -0.00, -1.00, 401.4, 9.9)">/</text><text xml:space="preserve" font-family="Akkurat-Mono,Akkurat-Mono" font-size="36.0" fill="#61DCF9" transform="matrix(1.00, 0.00, -0.00, -1.00, 423.7, 9.9)">m</text><text xml:space="preserve" font-family="Akkurat-Mono,Akkurat-Mono" font-size="36.0" fill="#61DCF9" transform="matrix(1.00, 0.00, -0.00, -1.00, 446.1, 9.9)">y</text><text xml:space="preserve" font-family="Akkurat-Mono,Akkurat-Mono" font-size="36.0" fill="#61DCF9" transform="matrix(1.00, 0.00, -0.00, -1.00, 468.4, 9.9)">p</text><text xml:space="preserve" font-family="Akkurat-Mono,Akkurat-Mono" font-size="36.0" fill="#61DCF9" transform="matrix(1.00, 0.00, -0.00, -1.00, 490.7, 9.9)">r</text><text xml:space="preserve" font-family="Akkurat-Mono,Akkurat-Mono" font-size="36.0" fill="#61DCF9" transform="matrix(1.00, 0.00, -0.00, -1.00, 513.0, 9.9)">o</text><text xml:space="preserve" font-family="Akkurat-Mono,Akkurat-Mono" font-size="36.0" fill="#61DCF9" transform="matrix(1.00, 0.00, -0.00, -1.00, 535.3, 9.9)">j</text><text xml:space="preserve" font-family="Akkurat-Mono,Akkurat-Mono" font-size="36.0" fill="#61DCF9" transform="matrix(1.00, 0.00, -0.00, -1.00, 557.7, 9.9)">e</text><text xml:space="preserve" font-family="Akkurat-Mono,Akkurat-Mono" font-size="36.0" fill="#61DCF9" transform="matrix(1.00, 0.00, -0.00, -1.00, 580.0, 9.9)">c</text><text xml:space="preserve" font-family="Akkurat-Mono,Akkurat-Mono" font-size="36.0" fill="#61DCF9" transform="matrix(1.00, 0.00, -0.00, -1.00, 602.3, 9.9)">t</text></g></svg>