<?xml version="1.0" encoding="UTF-8" standalone="no"?><svg xmlns="http://www.w3.org/2000/svg" xmlns:xlink="http://www.w3.org/1999/xlink" clip-rule="evenodd" stroke-miterlimit="10" viewBox="0 0 1024 768"><desc>SVG generated by Keynote</desc><defs></defs><g transform="matrix(1.00, 0.00, -0.00, -1.00, 0.0, 768.0)"><path d="M 0.0 768.0 L 1024.0 768.0 L 1024.0 0.0 L 0.0 0.0 Z M 0.0 768.0 " fill="#FEFFFF"></path><image xlink:href="../../8B5EE27B-3D89-4D2D-9B31-1C6002C98F72/assets/51DCD3179FED2CC753DD71DD4E39B29F.png" width="701.00" height="560.00" transform="matrix(1.00, 0.00, -0.00, -1.00, 161.5, 664.0)"></image><image xlink:href="../../4EBCB0B9-E0F0-4D44-A466-52E9B90D9713/assets/2F19D0FF8BA492AFB90416257243153E.png" width="160.00" height="160.00" transform="matrix(1.12, 0.00, -0.00, -1.12, 699.5, 292.2)"></image><text xml:space="preserve" font-family="AppleColorEmoji,Apple Color Emoji" font-size="180.0" fill="#000000" transform="matrix(1.00, 0.00, -0.00, -1.00, 699.5, 126.2)">✨</text><image xlink:href="../../4EBCB0B9-E0F0-4D44-A466-52E9B90D9713/assets/2F19D0FF8BA492AFB90416257243153E.png" width="160.00" height="160.00" transform="matrix(1.12, 0.00, -0.00, -1.12, 130.5, 488.2)"></image><text xml:space="preserve" font-family="AppleColorEmoji,Apple Color Emoji" font-size="180.0" fill="#000000" transform="matrix(1.00, 0.00, -0.00, -1.00, 130.5, 322.2)">✨</text><image xlink:href="../../4EBCB0B9-E0F0-4D44-A466-52E9B90D9713/assets/2F19D0FF8BA492AFB90416257243153E.png" width="160.00" height="160.00" transform="matrix(1.12, 0.00, -0.00, -1.12, 699.5, 710.2)"></image><text xml:space="preserve" font-family="AppleColorEmoji,Apple Color Emoji" font-size="180.0" fill="#000000" transform="matrix(1.00, 0.00, -0.00, -1.00, 699.5, 544.2)">✨</text></g></svg>