<?xml version="1.0" encoding="UTF-8" standalone="no"?><svg xmlns="http://www.w3.org/2000/svg" xmlns:xlink="http://www.w3.org/1999/xlink" clip-rule="evenodd" stroke-miterlimit="10" viewBox="0 0 1024 768"><desc>SVG generated by Keynote</desc><defs></defs><g transform="matrix(1.00, 0.00, -0.00, -1.00, 0.0, 768.0)"><path d="M 0.0 768.0 L 1024.0 768.0 L 1024.0 0.0 L 0.0 0.0 Z M 0.0 768.0 " fill="#FEFFFF"></path><g><clipPath id="clip0x7f956ec8acc0"><path d="M 242.0 491.0 L 782.0 491.0 L 782.0 87.0 L 242.0 87.0 Z M 242.5 491.3 "></path></clipPath><g clip-path="url(#clip0x7f956ec8acc0)"><image xlink:href="D548EF08B937790CAC71CFBFB0813E0B.png" width="415.00" height="144.00" transform="matrix(1.30, 0.00, -0.00, -1.30, 242.0, 383.0)"></image></g></g><text xml:space="preserve" font-family="Akkurat-Mono,Akkurat-Mono" font-size="80.0" fill="#000000" transform="matrix(1.00, 0.00, -0.00, -1.00, 189.6, 621.3)">c</text><text xml:space="preserve" font-family="Akkurat-Mono,Akkurat-Mono" font-size="80.0" fill="#000000" transform="matrix(1.00, 0.00, -0.00, -1.00, 239.2, 621.3)">u</text><text xml:space="preserve" font-family="Akkurat-Mono,Akkurat-Mono" font-size="80.0" fill="#000000" transform="matrix(1.00, 0.00, -0.00, -1.00, 288.8, 621.3)">s</text><text xml:space="preserve" font-family="Akkurat-Mono,Akkurat-Mono" font-size="80.0" fill="#000000" transform="matrix(1.00, 0.00, -0.00, -1.00, 338.4, 621.3)">t</text><text xml:space="preserve" font-family="Akkurat-Mono,Akkurat-Mono" font-size="80.0" fill="#000000" transform="matrix(1.00, 0.00, -0.00, -1.00, 388.0, 621.3)">o</text><text xml:space="preserve" font-family="Akkurat-Mono,Akkurat-Mono" font-size="80.0" fill="#000000" transform="matrix(1.00, 0.00, -0.00, -1.00, 437.6, 621.3)">m</text><text xml:space="preserve" font-family="Akkurat-Mono,Akkurat-Mono" font-size="80.0" fill="#000000" transform="matrix(1.00, 0.00, -0.00, -1.00, 487.2, 621.3)"> </text><text xml:space="preserve" font-family="Akkurat-Mono,Akkurat-Mono" font-size="80.0" fill="#000000" transform="matrix(1.00, 0.00, -0.00, -1.00, 536.8, 621.3)">p</text><text xml:space="preserve" font-family="Akkurat-Mono,Akkurat-Mono" font-size="80.0" fill="#000000" transform="matrix(1.00, 0.00, -0.00, -1.00, 586.4, 621.3)">r</text><text xml:space="preserve" font-family="Akkurat-Mono,Akkurat-Mono" font-size="80.0" fill="#000000" transform="matrix(1.00, 0.00, -0.00, -1.00, 636.0, 621.3)">o</text><text xml:space="preserve" font-family="Akkurat-Mono,Akkurat-Mono" font-size="80.0" fill="#000000" transform="matrix(1.00, 0.00, -0.00, -1.00, 685.6, 621.3)">m</text><text xml:space="preserve" font-family="Akkurat-Mono,Akkurat-Mono" font-size="80.0" fill="#000000" transform="matrix(1.00, 0.00, -0.00, -1.00, 735.2, 621.3)">p</text><text xml:space="preserve" font-family="Akkurat-Mono,Akkurat-Mono" font-size="80.0" fill="#000000" transform="matrix(1.00, 0.00, -0.00, -1.00, 784.8, 621.3)">t</text><text xml:space="preserve" font-family="Akkurat-Mono,Akkurat-Mono" font-size="36.0" fill="#000000" transform="matrix(1.00, 0.00, -0.00, -1.00, 187.7, 552.9)">a</text><text xml:space="preserve" font-family="Akkurat-Mono,Akkurat-Mono" font-size="36.0" fill="#000000" transform="matrix(1.00, 0.00, -0.00, -1.00, 210.0, 552.9)">k</text><text xml:space="preserve" font-family="Akkurat-Mono,Akkurat-Mono" font-size="36.0" fill="#000000" transform="matrix(1.00, 0.00, -0.00, -1.00, 232.3, 552.9)">i</text><text xml:space="preserve" font-family="Akkurat-Mono,Akkurat-Mono" font-size="36.0" fill="#000000" transform="matrix(1.00, 0.00, -0.00, -1.00, 254.6, 552.9)">e</text><text xml:space="preserve" font-family="Akkurat-Mono,Akkurat-Mono" font-size="36.0" fill="#000000" transform="matrix(1.00, 0.00, -0.00, -1.00, 276.9, 552.9)">v</text><text xml:space="preserve" font-family="Akkurat-Mono,Akkurat-Mono" font-size="36.0" fill="#000000" transform="matrix(1.00, 0.00, -0.00, -1.00, 299.3, 552.9)">e</text><text xml:space="preserve" font-family="Akkurat-Mono,Akkurat-Mono" font-size="36.0" fill="#000000" transform="matrix(1.00, 0.00, -0.00, -1.00, 321.6, 552.9)">t</text><text xml:space="preserve" font-family="Akkurat-Mono,Akkurat-Mono" font-size="36.0" fill="#000000" transform="matrix(1.00, 0.00, -0.00, -1.00, 343.9, 552.9)"> </text><text xml:space="preserve" font-family="Akkurat-Mono,Akkurat-Mono" font-size="36.0" fill="#61DCF9" transform="matrix(1.00, 0.00, -0.00, -1.00, 366.2, 552.9)">~</text><text xml:space="preserve" font-family="Akkurat-Mono,Akkurat-Mono" font-size="36.0" fill="#61DCF9" transform="matrix(1.00, 0.00, -0.00, -1.00, 388.5, 552.9)">/</text><text xml:space="preserve" font-family="Akkurat-Mono,Akkurat-Mono" font-size="36.0" fill="#61DCF9" transform="matrix(1.00, 0.00, -0.00, -1.00, 410.9, 552.9)">s</text><text xml:space="preserve" font-family="Akkurat-Mono,Akkurat-Mono" font-size="36.0" fill="#61DCF9" transform="matrix(1.00, 0.00, -0.00, -1.00, 433.2, 552.9)">r</text><text xml:space="preserve" font-family="Akkurat-Mono,Akkurat-Mono" font-size="36.0" fill="#61DCF9" transform="matrix(1.00, 0.00, -0.00, -1.00, 455.5, 552.9)">c</text><text xml:space="preserve" font-family="Akkurat-Mono,Akkurat-Mono" font-size="36.0" fill="#61DCF9" transform="matrix(1.00, 0.00, -0.00, -1.00, 477.8, 552.9)">/</text><text xml:space="preserve" font-family="Akkurat-Mono,Akkurat-Mono" font-size="36.0" fill="#61DCF9" transform="matrix(1.00, 0.00, -0.00, -1.00, 500.1, 552.9)">t</text><text xml:space="preserve" font-family="Akkurat-Mono,Akkurat-Mono" font-size="36.0" fill="#61DCF9" transform="matrix(1.00, 0.00, -0.00, -1.00, 522.5, 552.9)">e</text><text xml:space="preserve" font-family="Akkurat-Mono,Akkurat-Mono" font-size="36.0" fill="#61DCF9" transform="matrix(1.00, 0.00, -0.00, -1.00, 544.8, 552.9)">m</text><text xml:space="preserve" font-family="Akkurat-Mono,Akkurat-Mono" font-size="36.0" fill="#61DCF9" transform="matrix(1.00, 0.00, -0.00, -1.00, 567.1, 552.9)">p</text><text xml:space="preserve" font-family="Akkurat-Mono,Akkurat-Mono" font-size="36.0" fill="#61DCF9" transform="matrix(1.00, 0.00, -0.00, -1.00, 589.4, 552.9)">/</text><text xml:space="preserve" font-family="Akkurat-Mono,Akkurat-Mono" font-size="36.0" fill="#61DCF9" transform="matrix(1.00, 0.00, -0.00, -1.00, 611.7, 552.9)">m</text><text xml:space="preserve" font-family="Akkurat-Mono,Akkurat-Mono" font-size="36.0" fill="#61DCF9" transform="matrix(1.00, 0.00, -0.00, -1.00, 634.1, 552.9)">y</text><text xml:space="preserve" font-family="Akkurat-Mono,Akkurat-Mono" font-size="36.0" fill="#61DCF9" transform="matrix(1.00, 0.00, -0.00, -1.00, 656.4, 552.9)">p</text><text xml:space="preserve" font-family="Akkurat-Mono,Akkurat-Mono" font-size="36.0" fill="#61DCF9" transform="matrix(1.00, 0.00, -0.00, -1.00, 678.7, 552.9)">r</text><text xml:space="preserve" font-family="Akkurat-Mono,Akkurat-Mono" font-size="36.0" fill="#61DCF9" transform="matrix(1.00, 0.00, -0.00, -1.00, 701.0, 552.9)">o</text><text xml:space="preserve" font-family="Akkurat-Mono,Akkurat-Mono" font-size="36.0" fill="#61DCF9" transform="matrix(1.00, 0.00, -0.00, -1.00, 723.3, 552.9)">j</text><text xml:space="preserve" font-family="Akkurat-Mono,Akkurat-Mono" font-size="36.0" fill="#61DCF9" transform="matrix(1.00, 0.00, -0.00, -1.00, 745.7, 552.9)">e</text><text xml:space="preserve" font-family="Akkurat-Mono,Akkurat-Mono" font-size="36.0" fill="#61DCF9" transform="matrix(1.00, 0.00, -0.00, -1.00, 768.0, 552.9)">c</text><text xml:space="preserve" font-family="Akkurat-Mono,Akkurat-Mono" font-size="36.0" fill="#61DCF9" transform="matrix(1.00, 0.00, -0.00, -1.00, 790.3, 552.9)">t</text></g></svg>