<?xml version="1.0" encoding="UTF-8" standalone="no"?><svg xmlns="http://www.w3.org/2000/svg" xmlns:xlink="http://www.w3.org/1999/xlink" clip-rule="evenodd" stroke-miterlimit="10" viewBox="0 0 1024 768"><desc>SVG generated by Keynote</desc><defs></defs><g transform="matrix(1.00, 0.00, -0.00, -1.00, 0.0, 768.0)"><path d="M 0.0 768.0 L 1024.0 768.0 L 1024.0 0.0 L 0.0 0.0 Z M 0.0 768.0 " fill="#FEFFFF"></path><text xml:space="preserve" font-family="Akkurat-Mono,Akkurat-Mono" font-size="65.6" fill="#000000" transform="matrix(1.00, 0.00, -0.00, -1.00, 146.0, 405.9)">h</text><text xml:space="preserve" font-family="Akkurat-Mono,Akkurat-Mono" font-size="65.6" fill="#000000" transform="matrix(1.00, 0.00, -0.00, -1.00, 186.6, 405.9)">o</text><text xml:space="preserve" font-family="Akkurat-Mono,Akkurat-Mono" font-size="65.6" fill="#000000" transform="matrix(1.00, 0.00, -0.00, -1.00, 227.3, 405.9)">w</text><text xml:space="preserve" font-family="Akkurat-Mono,Akkurat-Mono" font-size="65.6" fill="#000000" transform="matrix(1.00, 0.00, -0.00, -1.00, 268.0, 405.9)"> </text><text xml:space="preserve" font-family="Akkurat-Mono,Akkurat-Mono" font-size="65.6" fill="#000000" transform="matrix(1.00, 0.00, -0.00, -1.00, 308.6, 405.9)">c</text><text xml:space="preserve" font-family="Akkurat-Mono,Akkurat-Mono" font-size="65.6" fill="#000000" transform="matrix(1.00, 0.00, -0.00, -1.00, 349.3, 405.9)">a</text><text xml:space="preserve" font-family="Akkurat-Mono,Akkurat-Mono" font-size="65.6" fill="#000000" transform="matrix(1.00, 0.00, -0.00, -1.00, 390.0, 405.9)">n</text><text xml:space="preserve" font-family="Akkurat-Mono,Akkurat-Mono" font-size="65.6" fill="#000000" transform="matrix(1.00, 0.00, -0.00, -1.00, 430.7, 405.9)"> </text><text xml:space="preserve" font-family="Akkurat-Mono,Akkurat-Mono" font-size="65.6" fill="#000000" transform="matrix(1.00, 0.00, -0.00, -1.00, 471.3, 405.9)">y</text><text xml:space="preserve" font-family="Akkurat-Mono,Akkurat-Mono" font-size="65.6" fill="#000000" transform="matrix(1.00, 0.00, -0.00, -1.00, 512.0, 405.9)">o</text><text xml:space="preserve" font-family="Akkurat-Mono,Akkurat-Mono" font-size="65.6" fill="#000000" transform="matrix(1.00, 0.00, -0.00, -1.00, 552.7, 405.9)">u</text><text xml:space="preserve" font-family="Akkurat-Mono,Akkurat-Mono" font-size="65.6" fill="#000000" transform="matrix(1.00, 0.00, -0.00, -1.00, 593.3, 405.9)">r</text><text xml:space="preserve" font-family="Akkurat-Mono,Akkurat-Mono" font-size="65.6" fill="#000000" transform="matrix(1.00, 0.00, -0.00, -1.00, 634.0, 405.9)"> </text><text xml:space="preserve" font-family="Akkurat-Mono,Akkurat-Mono" font-size="65.6" fill="#000000" transform="matrix(1.00, 0.00, -0.00, -1.00, 674.7, 405.9)">t</text><text xml:space="preserve" font-family="Akkurat-Mono,Akkurat-Mono" font-size="65.6" fill="#000000" transform="matrix(1.00, 0.00, -0.00, -1.00, 715.4, 405.9)">o</text><text xml:space="preserve" font-family="Akkurat-Mono,Akkurat-Mono" font-size="65.6" fill="#000000" transform="matrix(1.00, 0.00, -0.00, -1.00, 756.0, 405.9)">o</text><text xml:space="preserve" font-family="Akkurat-Mono,Akkurat-Mono" font-size="65.6" fill="#000000" transform="matrix(1.00, 0.00, -0.00, -1.00, 796.7, 405.9)">l</text><text xml:space="preserve" font-family="Akkurat-Mono,Akkurat-Mono" font-size="65.6" fill="#000000" transform="matrix(1.00, 0.00, -0.00, -1.00, 837.4, 405.9)">s</text><text xml:space="preserve" font-family="Akkurat-Mono,Akkurat-Mono" font-size="65.6" fill="#000000" transform="matrix(1.00, 0.00, -0.00, -1.00, 878.0, 405.9)"> </text><text xml:space="preserve" font-family="Akkurat-Mono,Akkurat-Mono" font-size="65.6" fill="#000000" transform="matrix(1.00, 0.00, -0.00, -1.00, 105.3, 318.9)">w</text><text xml:space="preserve" font-family="Akkurat-Mono,Akkurat-Mono" font-size="65.6" fill="#000000" transform="matrix(1.00, 0.00, -0.00, -1.00, 146.0, 318.9)">o</text><text xml:space="preserve" font-family="Akkurat-Mono,Akkurat-Mono" font-size="65.6" fill="#000000" transform="matrix(1.00, 0.00, -0.00, -1.00, 186.6, 318.9)">r</text><text xml:space="preserve" font-family="Akkurat-Mono,Akkurat-Mono" font-size="65.6" fill="#000000" transform="matrix(1.00, 0.00, -0.00, -1.00, 227.3, 318.9)">k</text><text xml:space="preserve" font-family="Akkurat-Mono,Akkurat-Mono" font-size="65.6" fill="#000000" transform="matrix(1.00, 0.00, -0.00, -1.00, 268.0, 318.9)"> </text><text xml:space="preserve" font-family="Akkurat-Mono,Akkurat-Mono" font-size="65.6" fill="#000000" transform="matrix(1.00, 0.00, -0.00, -1.00, 308.6, 318.9)">b</text><text xml:space="preserve" font-family="Akkurat-Mono,Akkurat-Mono" font-size="65.6" fill="#000000" transform="matrix(1.00, 0.00, -0.00, -1.00, 349.3, 318.9)">e</text><text xml:space="preserve" font-family="Akkurat-Mono,Akkurat-Mono" font-size="65.6" fill="#000000" transform="matrix(1.00, 0.00, -0.00, -1.00, 390.0, 318.9)">t</text><text xml:space="preserve" font-family="Akkurat-Mono,Akkurat-Mono" font-size="65.6" fill="#000000" transform="matrix(1.00, 0.00, -0.00, -1.00, 430.7, 318.9)">t</text><text xml:space="preserve" font-family="Akkurat-Mono,Akkurat-Mono" font-size="65.6" fill="#000000" transform="matrix(1.00, 0.00, -0.00, -1.00, 471.3, 318.9)">e</text><text xml:space="preserve" font-family="Akkurat-Mono,Akkurat-Mono" font-size="65.6" fill="#000000" transform="matrix(1.00, 0.00, -0.00, -1.00, 512.0, 318.9)">r</text><text xml:space="preserve" font-family="Akkurat-Mono,Akkurat-Mono" font-size="65.6" fill="#000000" transform="matrix(1.00, 0.00, -0.00, -1.00, 552.7, 318.9)"> </text><text xml:space="preserve" font-family="Akkurat-Mono,Akkurat-Mono" font-size="65.6" fill="#000000" transform="matrix(1.00, 0.00, -0.00, -1.00, 593.3, 318.9)">f</text><text xml:space="preserve" font-family="Akkurat-Mono,Akkurat-Mono" font-size="65.6" fill="#000000" transform="matrix(1.00, 0.00, -0.00, -1.00, 634.0, 318.9)">o</text><text xml:space="preserve" font-family="Akkurat-Mono,Akkurat-Mono" font-size="65.6" fill="#000000" transform="matrix(1.00, 0.00, -0.00, -1.00, 674.7, 318.9)">r</text><text xml:space="preserve" font-family="Akkurat-Mono,Akkurat-Mono" font-size="65.6" fill="#000000" transform="matrix(1.00, 0.00, -0.00, -1.00, 715.4, 318.9)"> </text><text xml:space="preserve" font-family="Akkurat-Mono,Akkurat-Mono" font-size="65.6" fill="#000000" transform="matrix(1.00, 0.00, -0.00, -1.00, 756.0, 318.9)">y</text><text xml:space="preserve" font-family="Akkurat-Mono,Akkurat-Mono" font-size="65.6" fill="#000000" transform="matrix(1.00, 0.00, -0.00, -1.00, 796.7, 318.9)">o</text><text xml:space="preserve" font-family="Akkurat-Mono,Akkurat-Mono" font-size="65.6" fill="#000000" transform="matrix(1.00, 0.00, -0.00, -1.00, 837.4, 318.9)">u</text><text xml:space="preserve" font-family="Akkurat-Mono,Akkurat-Mono" font-size="65.6" fill="#000000" transform="matrix(1.00, 0.00, -0.00, -1.00, 878.0, 318.9)">?</text></g></svg>