<?xml version="1.0" encoding="UTF-8" standalone="no"?><svg xmlns="http://www.w3.org/2000/svg" xmlns:xlink="http://www.w3.org/1999/xlink" clip-rule="evenodd" stroke-miterlimit="10" viewBox="0 0 1024 768"><desc>SVG generated by Keynote</desc><defs></defs><g transform="matrix(1.00, 0.00, -0.00, -1.00, 0.0, 768.0)"><path d="M 0.0 768.0 L 1024.0 768.0 L 1024.0 0.0 L 0.0 0.0 Z M 0.0 768.0 " fill="#FEFFFF"></path><text xml:space="preserve" font-family="Akkurat-Mono,Akkurat-Mono" font-size="36.0" fill="#000000" transform="matrix(1.00, 0.00, -0.00, -1.00, 99.1, 372.5)">a</text><text xml:space="preserve" font-family="Akkurat-Mono,Akkurat-Mono" font-size="36.0" fill="#000000" transform="matrix(1.00, 0.00, -0.00, -1.00, 121.4, 372.5)">l</text><text xml:space="preserve" font-family="Akkurat-Mono,Akkurat-Mono" font-size="36.0" fill="#000000" transform="matrix(1.00, 0.00, -0.00, -1.00, 143.7, 372.5)">i</text><text xml:space="preserve" font-family="Akkurat-Mono,Akkurat-Mono" font-size="36.0" fill="#000000" transform="matrix(1.00, 0.00, -0.00, -1.00, 166.0, 372.5)">a</text><text xml:space="preserve" font-family="Akkurat-Mono,Akkurat-Mono" font-size="36.0" fill="#000000" transform="matrix(1.00, 0.00, -0.00, -1.00, 188.4, 372.5)">s</text><text xml:space="preserve" font-family="Akkurat-Mono,Akkurat-Mono" font-size="36.0" fill="#000000" transform="matrix(1.00, 0.00, -0.00, -1.00, 210.7, 372.5)"> </text><text xml:space="preserve" font-family="Akkurat-Mono,Akkurat-Mono" font-size="36.0" fill="#000000" transform="matrix(1.00, 0.00, -0.00, -1.00, 233.0, 372.5)">s</text><text xml:space="preserve" font-family="Akkurat-Mono,Akkurat-Mono" font-size="36.0" fill="#000000" transform="matrix(1.00, 0.00, -0.00, -1.00, 255.3, 372.5)">u</text><text xml:space="preserve" font-family="Akkurat-Mono,Akkurat-Mono" font-size="36.0" fill="#000000" transform="matrix(1.00, 0.00, -0.00, -1.00, 277.6, 372.5)">b</text><text xml:space="preserve" font-family="Akkurat-Mono,Akkurat-Mono" font-size="36.0" fill="#000000" transform="matrix(1.00, 0.00, -0.00, -1.00, 300.0, 372.5)">l</text><text xml:space="preserve" font-family="Akkurat-Mono,Akkurat-Mono" font-size="36.0" fill="#000000" transform="matrix(1.00, 0.00, -0.00, -1.00, 322.3, 372.5)">=</text><text xml:space="preserve" font-family="Akkurat-Mono,Akkurat-Mono" font-size="36.0" fill="#000000" transform="matrix(1.00, 0.00, -0.00, -1.00, 344.6, 372.5)">'</text><text xml:space="preserve" font-family="Akkurat-Mono,Akkurat-Mono" font-size="36.0" fill="#000000" transform="matrix(1.00, 0.00, -0.00, -1.00, 366.9, 372.5)">o</text><text xml:space="preserve" font-family="Akkurat-Mono,Akkurat-Mono" font-size="36.0" fill="#000000" transform="matrix(1.00, 0.00, -0.00, -1.00, 389.2, 372.5)">p</text><text xml:space="preserve" font-family="Akkurat-Mono,Akkurat-Mono" font-size="36.0" fill="#000000" transform="matrix(1.00, 0.00, -0.00, -1.00, 411.6, 372.5)">e</text><text xml:space="preserve" font-family="Akkurat-Mono,Akkurat-Mono" font-size="36.0" fill="#000000" transform="matrix(1.00, 0.00, -0.00, -1.00, 433.9, 372.5)">n</text><text xml:space="preserve" font-family="Akkurat-Mono,Akkurat-Mono" font-size="36.0" fill="#000000" transform="matrix(1.00, 0.00, -0.00, -1.00, 456.2, 372.5)"> </text><text xml:space="preserve" font-family="Akkurat-Mono,Akkurat-Mono" font-size="36.0" fill="#000000" transform="matrix(1.00, 0.00, -0.00, -1.00, 478.5, 372.5)">-</text><text xml:space="preserve" font-family="Akkurat-Mono,Akkurat-Mono" font-size="36.0" fill="#000000" transform="matrix(1.00, 0.00, -0.00, -1.00, 500.8, 372.5)">a</text><text xml:space="preserve" font-family="Akkurat-Mono,Akkurat-Mono" font-size="36.0" fill="#000000" transform="matrix(1.00, 0.00, -0.00, -1.00, 523.2, 372.5)"> </text><text xml:space="preserve" font-family="Akkurat-Mono,Akkurat-Mono" font-size="36.0" fill="#000000" transform="matrix(1.00, 0.00, -0.00, -1.00, 545.5, 372.5)">"</text><text xml:space="preserve" font-family="Akkurat-Mono,Akkurat-Mono" font-size="36.0" fill="#000000" transform="matrix(1.00, 0.00, -0.00, -1.00, 567.8, 372.5)">S</text><text xml:space="preserve" font-family="Akkurat-Mono,Akkurat-Mono" font-size="36.0" fill="#000000" transform="matrix(1.00, 0.00, -0.00, -1.00, 590.1, 372.5)">u</text><text xml:space="preserve" font-family="Akkurat-Mono,Akkurat-Mono" font-size="36.0" fill="#000000" transform="matrix(1.00, 0.00, -0.00, -1.00, 612.4, 372.5)">b</text><text xml:space="preserve" font-family="Akkurat-Mono,Akkurat-Mono" font-size="36.0" fill="#000000" transform="matrix(1.00, 0.00, -0.00, -1.00, 634.8, 372.5)">l</text><text xml:space="preserve" font-family="Akkurat-Mono,Akkurat-Mono" font-size="36.0" fill="#000000" transform="matrix(1.00, 0.00, -0.00, -1.00, 657.1, 372.5)">i</text><text xml:space="preserve" font-family="Akkurat-Mono,Akkurat-Mono" font-size="36.0" fill="#000000" transform="matrix(1.00, 0.00, -0.00, -1.00, 679.4, 372.5)">m</text><text xml:space="preserve" font-family="Akkurat-Mono,Akkurat-Mono" font-size="36.0" fill="#000000" transform="matrix(1.00, 0.00, -0.00, -1.00, 701.7, 372.5)">e</text><text xml:space="preserve" font-family="Akkurat-Mono,Akkurat-Mono" font-size="36.0" fill="#000000" transform="matrix(1.00, 0.00, -0.00, -1.00, 724.0, 372.5)"> </text><text xml:space="preserve" font-family="Akkurat-Mono,Akkurat-Mono" font-size="36.0" fill="#000000" transform="matrix(1.00, 0.00, -0.00, -1.00, 746.4, 372.5)">T</text><text xml:space="preserve" font-family="Akkurat-Mono,Akkurat-Mono" font-size="36.0" fill="#000000" transform="matrix(1.00, 0.00, -0.00, -1.00, 768.7, 372.5)">e</text><text xml:space="preserve" font-family="Akkurat-Mono,Akkurat-Mono" font-size="36.0" fill="#000000" transform="matrix(1.00, 0.00, -0.00, -1.00, 791.0, 372.5)">x</text><text xml:space="preserve" font-family="Akkurat-Mono,Akkurat-Mono" font-size="36.0" fill="#000000" transform="matrix(1.00, 0.00, -0.00, -1.00, 813.3, 372.5)">t</text><text xml:space="preserve" font-family="Akkurat-Mono,Akkurat-Mono" font-size="36.0" fill="#000000" transform="matrix(1.00, 0.00, -0.00, -1.00, 835.6, 372.5)"> </text><text xml:space="preserve" font-family="Akkurat-Mono,Akkurat-Mono" font-size="36.0" fill="#000000" transform="matrix(1.00, 0.00, -0.00, -1.00, 858.0, 372.5)">2</text><text xml:space="preserve" font-family="Akkurat-Mono,Akkurat-Mono" font-size="36.0" fill="#000000" transform="matrix(1.00, 0.00, -0.00, -1.00, 880.3, 372.5)">"</text><text xml:space="preserve" font-family="Akkurat-Mono,Akkurat-Mono" font-size="36.0" fill="#000000" transform="matrix(1.00, 0.00, -0.00, -1.00, 902.6, 372.5)">'</text></g></svg>